<svg class="animated" id="freepik_stories-product-presentation" xmlns="http://www.w3.org/2000/svg" viewBox="0 0 500 500" version="1.1" xmlns:xlink="http://www.w3.org/1999/xlink" xmlns:svgjs="http://svgjs.com/svgjs"><style>svg#freepik_stories-product-presentation:not(.animated) .animable {opacity: 0;}svg#freepik_stories-product-presentation.animated #freepik--Board--inject-90 {animation: 1.5s Infinite  linear heartbeat;animation-delay: 0s;}svg#freepik_stories-product-presentation.animated #freepik--light-bulb--inject-90 {animation: 1s 1 forwards cubic-bezier(.36,-0.01,.5,1.38) slideDown;animation-delay: 0s;}svg#freepik_stories-product-presentation.animated #freepik--speech-bubble--inject-90 {animation: 1.5s Infinite  linear floating;animation-delay: 0s;}            @keyframes heartbeat {                0% {                    transform: scale(1);                }                10% {                    transform: scale(1.1);                }                30% {                    transform: scale(1);                }                40% {                    transform: scale(1);                }                50% {                    transform: scale(1.1);                }                60% {                    transform: scale(1);                }                100% {                    transform: scale(1);                }            }                    @keyframes slideDown {                0% {                    opacity: 0;                    transform: translateY(-30px);                }                100% {                    opacity: 1;                    transform: translateY(0);                }            }                    @keyframes floating {                0% {                    opacity: 1;                    transform: translateY(0px);                }                50% {                    transform: translateY(-10px);                }                100% {                    opacity: 1;                    transform: translateY(0px);                }            }        </style><g id="freepik--background-complete--inject-90" class="animable" style="transform-origin: 250px 224.29px;"><rect x="67.27" y="59.04" width="35.16" height="11.19" style="fill: rgb(235, 235, 235); transform-origin: 84.85px 64.635px;" id="elb5kuhtv116" class="animable"></rect><rect x="160.9" y="378.73" width="35.16" height="11.19" style="fill: rgb(235, 235, 235); transform-origin: 178.48px 384.325px;" id="el1rnhk41gm91" class="animable"></rect><path d="M82.82,44.93c-5.84.1-20.81.35-26.45.42l-8.71,0,.46-.46,0,11.19-.5-.5c5.84,0,20.73.08,26.37.16l8.79.11-.24.23.24-11.19Zm0,0,.23,11.19v.24h-.24c-4.39.06-13.2.16-17.58.19l-17.58.07h-.5v-.5l0-11.19v-.45h.45l8.87,0c5.6.06,20.5.31,26.29.41Z" style="fill: rgb(235, 235, 235); transform-origin: 65.1px 50.55px;" id="eljec1j7847v" class="animable"></path><path d="M405.76,276.89c-5.84.1-20.81.35-26.44.41l-8.71.05.45-.46,0,11.19-.49-.5c5.83,0,20.72.07,26.36.15l8.79.11-.23.24.23-11.19Zm0,0,.24,11.19v.24h-.25c-4.38.06-13.19.16-17.58.19l-17.57.07h-.51v-.5l0-11.19v-.46h.46l8.86,0c5.6.06,20.51.31,26.29.41Z" style="fill: rgb(235, 235, 235); transform-origin: 388.045px 282.505px;" id="el4vxmp5uh5iw" class="animable"></path><path d="M386.15,262.78c-5.84.1-20.81.35-26.45.41l-8.71.05.46-.46,0,11.19-.5-.5c5.84,0,20.73.07,26.37.15l8.79.11-.24.24.24-11.19Zm0,0,.24,11.19v.24h-.24c-4.39.06-13.19.16-17.58.19l-17.58.07h-.5V274l.05-11.19v-.46H351l8.87,0c5.6.06,20.51.31,26.29.41Z" style="fill: rgb(235, 235, 235); transform-origin: 368.44px 268.41px;" id="elyk8q7vge2zj" class="animable"></path><rect x="331.46" y="276.89" width="35.16" height="11.19" style="fill: rgb(235, 235, 235); transform-origin: 349.04px 282.485px;" id="elk3qjs05whn" class="animable"></rect><rect x="417.18" y="44.93" width="35.16" height="11.19" style="fill: rgb(235, 235, 235); transform-origin: 434.76px 50.525px;" id="eljz6tng6dwxn" class="animable"></rect><rect x="397.57" y="436.89" width="35.16" height="11.19" style="fill: rgb(235, 235, 235); transform-origin: 415.15px 442.485px;" id="elb1ilq0tyx9q" class="animable"></rect><path d="M452.34,422.78c-5.84.1-20.81.35-26.45.42l-8.71,0,.46-.46,0,11.19-.5-.5c5.84,0,20.73.07,26.37.16l8.79.1-.24.24.24-11.19Zm0,0,.24,11.19v.24h-.24c-4.39.06-13.19.16-17.58.19l-17.58.07h-.5V434l.05-11.19v-.46h.45l8.87,0c5.6.06,20.51.31,26.29.41Z" style="fill: rgb(235, 235, 235); transform-origin: 434.63px 428.41px;" id="elv9wzlw2n80b" class="animable"></path><path d="M102.43,436.89c-5.84.1-20.81.35-26.45.41l-8.71.05.46-.46,0,11.19-.5-.5c5.84,0,20.73.07,26.37.15l8.79.11-.24.24.24-11.19Zm0,0,.24,11.19v.24h-.24c-4.39.06-13.2.16-17.58.19l-17.58.07h-.5v-.5l0-11.19v-.46h.45l8.87,0c5.6.06,20.5.31,26.29.41Z" style="fill: rgb(235, 235, 235); transform-origin: 84.72px 442.505px;" id="elz5uilxbf02i" class="animable"></path><rect x="425.05" width="1" height="64.47" style="fill: rgb(199, 199, 199); transform-origin: 425.55px 32.235px;" id="elz23eeu0yjg" class="animable"></rect><polygon points="388.88 99.82 391.83 106.3 459.27 106.3 462.22 99.82 433.5 79.94 417.59 79.94 388.88 99.82" style="fill: rgb(235, 235, 235); transform-origin: 425.55px 93.12px;" id="elxlptnwdwib" class="animable"></polygon><polygon points="415.6 60.79 417.59 79.94 433.5 79.94 435.49 60.79 415.6 60.79" style="fill: rgb(219, 219, 219); transform-origin: 425.545px 70.365px;" id="elz4k0f8vrz1h" class="animable"></polygon><polygon points="388.88 99.82 391.83 106.31 459.28 106.31 462.22 99.82 388.88 99.82" style="fill: rgb(219, 219, 219); transform-origin: 425.55px 103.065px;" id="elzud8otjqpd" class="animable"></polygon><rect x="73.95" width="1" height="64.47" style="fill: rgb(199, 199, 199); transform-origin: 74.45px 32.235px;" id="elogssmtxw1f" class="animable"></rect><polygon points="37.78 99.82 40.73 106.3 108.18 106.3 111.12 99.82 82.41 79.94 66.5 79.94 37.78 99.82" style="fill: rgb(235, 235, 235); transform-origin: 74.45px 93.12px;" id="elro9ozruyze" class="animable"></polygon><polygon points="64.5 60.79 66.5 79.94 82.41 79.94 84.4 60.79 64.5 60.79" style="fill: rgb(219, 219, 219); transform-origin: 74.45px 70.365px;" id="eleespjwo2k8q" class="animable"></polygon><polygon points="37.78 99.82 40.73 106.31 108.18 106.31 111.12 99.82 37.78 99.82" style="fill: rgb(219, 219, 219); transform-origin: 74.45px 103.065px;" id="elikzqikeccxj" class="animable"></polygon></g><g id="freepik--Floor--inject-90" class="animable" style="transform-origin: 250px 458.664px;"><path d="M44,458.66c132-.61,280-.61,412,0-132,.62-280,.62-412,0Z" style="fill: rgb(38, 50, 56); transform-origin: 250px 458.664px;" id="eldzyydbn89ft" class="animable"></path></g><g id="freepik--Board--inject-90" class="animable" style="transform-origin: 250px 261.565px;"><polygon points="182.45 458.66 175.5 458.66 224.19 263.57 241.5 263.57 182.45 458.66" style="fill: rgb(69, 90, 100); transform-origin: 208.5px 361.115px;" id="elukdgp3fhjv8" class="animable"></polygon><polygon points="241.5 263.57 232.77 292.42 216.99 292.42 224.18 263.6 224.19 263.57 241.5 263.57" style="fill: rgb(38, 50, 56); transform-origin: 229.245px 277.995px;" id="el6lbfeqn015s" class="animable"></polygon><polygon points="256.09 458.54 249.15 458.54 248.08 263.57 265.39 263.57 256.09 458.54" style="fill: rgb(69, 90, 100); transform-origin: 256.735px 361.055px;" id="elf9kf1erx2xd" class="animable"></polygon><polygon points="265.38 263.57 264.01 292.42 248.26 292.42 248.08 263.6 248.08 263.57 265.38 263.57" style="fill: rgb(38, 50, 56); transform-origin: 256.73px 277.995px;" id="elm27zidle2" class="animable"></polygon><polygon points="317.55 458.66 324.5 458.66 286.17 263.57 268.86 263.57 317.55 458.66" style="fill: rgb(69, 90, 100); transform-origin: 296.68px 361.115px;" id="elft5q97w74y" class="animable"></polygon><polygon points="291.83 292.42 276.06 292.42 268.86 263.57 286.17 263.57 286.18 263.6 291.83 292.42" style="fill: rgb(38, 50, 56); transform-origin: 280.345px 277.995px;" id="el757ny5zx908" class="animable"></polygon><rect x="202.27" y="375.08" width="101.03" height="3.81" style="fill: rgb(69, 90, 100); transform-origin: 252.785px 376.985px;" id="elkvju4q70jvt" class="animable"></rect><rect x="143.47" y="72.56" width="213.07" height="213.44" style="fill: rgb(255, 255, 255); transform-origin: 250.005px 179.28px;" id="el1zynx6s7cp3" class="animable"></rect><path d="M356.53,286c-.2.06-213.12.21-213.32.25s0-213.6-.12-213.69v-.38h.38c.16-.08,213.14.19,213.31.14.17.15-.37,213.49-.25,213.68Zm0,0c0,.05-.56-214.46,0-213.2l-213.06.13.37-.37c-.09-.1.25,214.53-.37,213.19l213.06.25Z" style="fill: rgb(38, 50, 56); transform-origin: 249.952px 179.208px;" id="elo8pqiipquuq" class="animable"></path><rect x="135.26" y="64.47" width="229.48" height="15.05" style="fill: rgb(255, 193, 0); transform-origin: 250px 71.995px;" id="el7sr4p9v6vbi" class="animable"></rect><g id="el93ll16zcky6"><rect x="135.26" y="64.47" width="229.48" height="15.05" style="opacity: 0.2; transform-origin: 250px 71.995px;" class="animable"></rect></g><rect x="204.86" y="90.09" width="90.28" height="2.35" style="fill: rgb(199, 199, 199); transform-origin: 250px 91.265px;" id="el8ord87vn77j" class="animable"></rect><rect x="220.3" y="95" width="59.41" height="2.35" style="fill: rgb(199, 199, 199); transform-origin: 250.005px 96.175px;" id="elejulqw0xag6" class="animable"></rect><path d="M305.46,130.25l-33,128.66a8.28,8.28,0,0,1-8.33,6l-65.85-5c-3.68-.28-8-6.91-8-9.42l35.95-126.24a8.25,8.25,0,0,1,8.31-6l65.56.52C303.82,119.09,306.38,126.67,305.46,130.25Z" style="fill: rgb(38, 50, 56); transform-origin: 247.964px 191.58px;" id="elefhee23b2i" class="animable"></path><path d="M297.78,117.6l-65.85-5a8.26,8.26,0,0,0-8.32,6l-33.1,129.71a5.42,5.42,0,0,0,5,7l65.84,5a8.27,8.27,0,0,0,8.33-6l33.1-129.71A5.43,5.43,0,0,0,297.78,117.6ZM266.54,250A7.63,7.63,0,0,1,259,255.7l-58.91-4.44c-3.3-.25-5.27-3.21-4.39-6.63l30.82-120.78c1.77-7,4.53-7.09,7.83-6.84l11.81.89c.68,0,1.05.84.82,1.76l-.11.4c-.55,2.17.69,2.27,2.21,2.38l27.28,2.06c1.54.12,2.77.2,3.32-2l.11-.4c.23-.93,1-1.63,1.67-1.58l11.8.89c3.3.25,5.73,1.38,4.11,7.75Z" style="fill: rgb(55, 71, 79); transform-origin: 246.643px 186.455px;" id="eledy66jy317f" class="animable"></path><line x1="197.65" y1="236.98" x2="197.43" y2="236.96" style="fill: none; transform-origin: 197.54px 236.97px;" id="elt7usw05vute" class="animable"></line><path d="M297.34,129.3,266.52,250.09a7.64,7.64,0,0,1-7.54,5.72l-58.91-4.44c-3.3-.25-5.27-3.22-4.4-6.63L226.49,124c1.78-7,4.54-7.1,7.84-6.85l11.8.89c.69.06,1.06.84.82,1.77l-.1.4c-.55,2.16.69,2.26,2.2,2.38l27.29,2.06c1.54.11,2.77.2,3.32-2l.1-.4c.24-.92,1-1.62,1.68-1.57l11.8.89C296.53,121.81,299,122.93,297.34,129.3Z" style="fill: rgb(255, 255, 255); transform-origin: 246.668px 186.447px;" id="el7g35slsm4x3" class="animable"></path><g id="elmjkrryh9178"><path d="M222.56,139.37,195.67,244.74c-.87,3.41,1.1,6.38,4.39,6.62L259,255.81a7.64,7.64,0,0,0,7.55-5.72L286.69,171c-15-3.07-36.13,17.43-48.92,9.95-11.72-6.85-6.4-25.32-9.15-34.12A12.88,12.88,0,0,0,222.56,139.37Z" style="fill: rgb(255, 193, 0); opacity: 0.1; transform-origin: 241.077px 197.591px;" class="animable"></path></g><g id="el8326l57qrek"><path d="M204.86,208.75l-9.19,36c-.87,3.41,1.1,6.38,4.39,6.62L259,255.81a7.64,7.64,0,0,0,7.55-5.72l12-47.06c-12,13.43-22.45,16.78-30.5,14.05C238.86,214,228,200.79,213.7,204A19.39,19.39,0,0,0,204.86,208.75Z" style="fill: rgb(255, 193, 0); opacity: 0.2; transform-origin: 237.007px 229.421px;" class="animable"></path></g><path d="M267.14,121.05l-7.45-.56a.38.38,0,0,1-.35-.48h0a.57.57,0,0,1,.58-.4l7.44.56a.37.37,0,0,1,.35.47h0A.57.57,0,0,1,267.14,121.05Z" style="fill: rgb(38, 50, 56); transform-origin: 263.525px 120.33px;" id="elzj76pzh4eq8" class="animable"></path><g id="freepik--u5Zjqx--inject-90" class="animable" style="transform-origin: 242.175px 120.678px;"><path d="M243.43,120.46l-.15.1-.08,0a1.35,1.35,0,0,0-1-.52,1.87,1.87,0,0,0-1.21.36l0-.07-.09-.11h0l.18-.11a1.84,1.84,0,0,1,.38-.17,1.67,1.67,0,0,1,.48-.11h.23a1.09,1.09,0,0,1,.19,0l.15,0a1.53,1.53,0,0,1,.38.12,1.28,1.28,0,0,1,.25.15,1,1,0,0,1,.21.19l.1.11Z" style="fill: rgb(166, 166, 166); transform-origin: 242.175px 120.193px;" id="el2tpl1cb0npi" class="animable"></path><path d="M241.28,120.82l-.14-.19a1.6,1.6,0,0,1,.83-.29,1.1,1.1,0,0,1,1,.43l-.23.16a.84.84,0,0,0-.66-.35A1.21,1.21,0,0,0,241.28,120.82Z" style="fill: rgb(166, 166, 166); transform-origin: 242.055px 120.632px;" id="el9afo6qc4m6j" class="animable"></path><path d="M242.53,121.09l-.22.16a.43.43,0,0,0-.34-.18.64.64,0,0,0-.42.12l-.13-.19A.8.8,0,0,1,242.53,121.09Z" style="fill: rgb(166, 166, 166); transform-origin: 241.975px 121.034px;" id="elpspqi6jdl1e" class="animable"></path><path d="M242.05,121.38a.2.2,0,0,1-.2.15.13.13,0,0,1-.12-.17.19.19,0,0,1,.2-.14A.12.12,0,0,1,242.05,121.38Z" style="fill: rgb(166, 166, 166); transform-origin: 241.89px 121.375px;" id="elt8q7nc8vq5" class="animable"></path></g><path d="M232.22,120a.59.59,0,0,1,.59-.42.38.38,0,0,1,.35.49.56.56,0,0,1-.58.41A.38.38,0,0,1,232.22,120Z" style="fill: rgb(166, 166, 166); transform-origin: 232.691px 120.03px;" id="el4wt74c0effc" class="animable"></path><path d="M233.7,120.06a.6.6,0,0,1,.59-.42.38.38,0,0,1,.35.49.56.56,0,0,1-.58.41A.38.38,0,0,1,233.7,120.06Z" style="fill: rgb(166, 166, 166); transform-origin: 234.171px 120.091px;" id="elwe4pz4o8asd" class="animable"></path><path d="M235.18,120.17a.58.58,0,0,1,.59-.41.37.37,0,0,1,.35.48.56.56,0,0,1-.58.41A.38.38,0,0,1,235.18,120.17Z" style="fill: rgb(166, 166, 166); transform-origin: 235.652px 120.205px;" id="elwqbb0cqya3e" class="animable"></path><path d="M236.66,120.28a.58.58,0,0,1,.59-.41.38.38,0,0,1,.35.48.57.57,0,0,1-.58.42A.39.39,0,0,1,236.66,120.28Z" style="fill: rgb(166, 166, 166); transform-origin: 237.13px 120.32px;" id="el3e7ngj9kdvt" class="animable"></path><path d="M238.14,120.39a.57.57,0,0,1,.58-.41.38.38,0,0,1,.36.48.58.58,0,0,1-.59.42A.39.39,0,0,1,238.14,120.39Z" style="fill: rgb(166, 166, 166); transform-origin: 238.61px 120.43px;" id="eljuiujcse61h" class="animable"></path><path d="M292.89,125.52l-3.82-.28.43-1.7,3.82.29Zm-3.58-.46,3.43.26.34-1.32-3.44-.26Z" style="fill: rgb(166, 166, 166); transform-origin: 291.195px 124.53px;" id="eluqmkumbpo8f" class="animable"></path><polygon points="292.2 124.04 289.74 123.85 289.45 124.97 291.92 125.16 292.2 124.04" style="fill: rgb(166, 166, 166); transform-origin: 290.825px 124.505px;" id="elkkm0izqc83m" class="animable"></polygon><polygon points="293.33 125.16 292.99 125.13 293.22 124.22 293.56 124.25 293.33 125.16" style="fill: rgb(166, 166, 166); transform-origin: 293.275px 124.69px;" id="elxik56xgdo9j" class="animable"></polygon><polygon points="267.96 203.54 217.59 199.74 218.91 194.56 269.28 198.36 267.96 203.54" style="fill: rgb(235, 235, 235); transform-origin: 243.435px 199.05px;" id="elph97xppjia" class="animable"></polygon><path d="M266.29,201.75l-.39.22-.41-.82-.15-.3a.42.42,0,0,0,.14-.06.74.74,0,0,0,.23-.2l.16.32Z" style="fill: rgb(166, 166, 166); transform-origin: 265.815px 201.28px;" id="eltaaee517qns" class="animable"></path><path d="M266.11,199.88a.87.87,0,0,0-1.22-.25.94.94,0,0,0-.48,1.2.84.84,0,0,0,1.08.32l.14-.07a1.46,1.46,0,0,0,.24-.17A.88.88,0,0,0,266.11,199.88Zm-.63.91a.42.42,0,0,1-.14.06.49.49,0,0,1-.59-.21.57.57,0,0,1,.29-.72.52.52,0,0,1,.73.15.52.52,0,0,1-.06.52A.74.74,0,0,1,265.48,200.79Z" style="fill: rgb(166, 166, 166); transform-origin: 265.264px 200.356px;" id="elr5t0m5ah8ra" class="animable"></path><path d="M220.53,197.79a.06.06,0,0,1,.09,0,.86.86,0,0,0,.58.28.75.75,0,0,0,.45-.09.43.43,0,0,0,.24-.26.24.24,0,0,0-.09-.27,1.22,1.22,0,0,0-.41-.18h0a1.26,1.26,0,0,1-.42-.19.31.31,0,0,1-.11-.34.53.53,0,0,1,.29-.34,1,1,0,0,1,.5-.1,1,1,0,0,1,.55.26.06.06,0,0,1,0,.09.07.07,0,0,1-.09,0,.82.82,0,0,0-.48-.24.79.79,0,0,0-.42.08.38.38,0,0,0-.22.25.21.21,0,0,0,.08.23,1.18,1.18,0,0,0,.39.18h0a1,1,0,0,1,.45.2.37.37,0,0,1,.13.37.61.61,0,0,1-.32.35.88.88,0,0,1-.54.11,1,1,0,0,1-.64-.32A.05.05,0,0,1,220.53,197.79Z" style="fill: rgb(166, 166, 166); transform-origin: 221.37px 197.242px;" id="elzqxtcc4tko" class="animable"></path><path d="M222.42,197.62a.82.82,0,0,1,.83-.6.54.54,0,0,1,.5.66h0s0,.05-.08.05l-1.11-.08a.42.42,0,0,0,.4.53.61.61,0,0,0,.5-.2.06.06,0,0,1,.09,0,.06.06,0,0,1,0,.09.78.78,0,0,1-.63.25A.54.54,0,0,1,222.42,197.62Zm.17-.09,1,.08a.42.42,0,0,0-.41-.46A.65.65,0,0,0,222.59,197.53Z" style="fill: rgb(166, 166, 166); transform-origin: 223.08px 197.671px;" id="elnfw0uv47yvq" class="animable"></path><path d="M225.5,197.26l-.3,1.17a.1.1,0,0,1-.08.06.05.05,0,0,1-.05-.07l.05-.19a.79.79,0,0,1-.58.21.53.53,0,0,1-.48-.69.82.82,0,0,1,.81-.61.53.53,0,0,1,.45.3l.05-.19s0-.07.08-.06A.05.05,0,0,1,225.5,197.26Zm-.28.57a.43.43,0,0,0-.38-.56.66.66,0,0,0-.65.49.43.43,0,0,0,.38.56A.67.67,0,0,0,225.22,197.83Z" style="fill: rgb(166, 166, 166); transform-origin: 224.77px 197.815px;" id="elsug2udmhxbs" class="animable"></path><path d="M226.08,197.3a.09.09,0,0,1,.08-.06s.06,0,.05.07l-.07.29,0,0a.83.83,0,0,1,.63-.28.05.05,0,0,1,.05.07.1.1,0,0,1-.08.06.61.61,0,0,0-.45.18,1.46,1.46,0,0,0-.24.29v0l-.15.57s0,.07-.08.06a.05.05,0,0,1-.05-.07Z" style="fill: rgb(166, 166, 166); transform-origin: 226.295px 197.895px;" id="el5fpjc17dmki" class="animable"></path><path d="M227,198a.84.84,0,0,1,.86-.59.57.57,0,0,1,.4.17.06.06,0,0,1,0,.09.09.09,0,0,1-.1,0,.46.46,0,0,0-.32-.15.71.71,0,0,0-.7.48.45.45,0,0,0,.44.57.6.6,0,0,0,.37-.09s.08,0,.09,0a.07.07,0,0,1,0,.09.86.86,0,0,1-.47.11A.56.56,0,0,1,227,198Z" style="fill: rgb(166, 166, 166); transform-origin: 227.634px 198.045px;" id="elx4x8j2ru20h" class="animable"></path><path d="M229.7,198a.33.33,0,0,0-.34-.41.5.5,0,0,0-.53.35l-.18.72h0l0,0h0s0,0,0,0,0,0,0,0v0l.19-.73v0l.25-1a.09.09,0,0,1,.09-.06.05.05,0,0,1,.05.07l-.17.68a.67.67,0,0,1,.47-.16.44.44,0,0,1,.44.56l-.18.73a.08.08,0,0,1-.09,0,.05.05,0,0,1-.05-.06Z" style="fill: rgb(166, 166, 166); transform-origin: 229.318px 197.817px;" id="elxx4bzreys0c" class="animable"></path><path d="M259.28,163.69a4.37,4.37,0,0,1-4.43,3.13,2.87,2.87,0,0,1-2.69-3.67,4.38,4.38,0,0,1,4.43-3.14A2.87,2.87,0,0,1,259.28,163.69Z" style="fill: rgb(255, 193, 0); transform-origin: 255.721px 163.415px;" id="eljm8y995nhe" class="animable"></path><path d="M257.19,158.74c-.11.43-.32.76-.47.75s-.18-.36-.07-.79.32-.77.47-.76S257.3,158.31,257.19,158.74Z" style="fill: rgb(255, 193, 0); transform-origin: 256.92px 158.715px;" id="el8e7v0fiv6if" class="animable"></path><path d="M254.57,159.05c.13.39.11.75,0,.81s-.37-.2-.5-.59-.12-.75,0-.81S254.44,158.66,254.57,159.05Z" style="fill: rgb(255, 193, 0); transform-origin: 254.318px 159.16px;" id="el1efpo3qwn8t" class="animable"></path><path d="M252.26,160.54c.33.24.52.53.41.65s-.46,0-.79-.23-.52-.54-.41-.65S251.93,160.29,252.26,160.54Z" style="fill: rgb(255, 193, 0); transform-origin: 252.07px 160.751px;" id="el6le50xucm68" class="animable"></path><path d="M250.88,162.79c.44,0,.78.18.74.32s-.43.23-.87.19-.78-.17-.75-.31S250.43,162.76,250.88,162.79Z" style="fill: rgb(255, 193, 0); transform-origin: 250.811px 163.047px;" id="el3n7z9cggwm" class="animable"></path><path d="M250.79,165.21c.44-.18.84-.23.88-.1s-.28.38-.72.57-.84.23-.88.1S250.35,165.4,250.79,165.21Z" style="fill: rgb(255, 193, 0); transform-origin: 250.87px 165.446px;" id="elz93dtxhcvqg" class="animable"></path><path d="M252,167.15c.32-.35.66-.57.77-.49s-.06.43-.37.79-.67.57-.78.49S251.71,167.51,252,167.15Z" style="fill: rgb(255, 193, 0); transform-origin: 252.196px 167.3px;" id="elcj1suwaltqf" class="animable"></path><path d="M254.25,168.09c.11-.42.32-.76.47-.75s.18.37.07.8-.32.76-.47.75S254.15,168.52,254.25,168.09Z" style="fill: rgb(255, 193, 0); transform-origin: 254.522px 168.115px;" id="eln0rl14cse2" class="animable"></path><path d="M256.87,167.78c-.13-.39-.11-.75,0-.81s.37.2.5.59.12.75,0,.81S257,168.17,256.87,167.78Z" style="fill: rgb(255, 193, 0); transform-origin: 257.122px 167.67px;" id="el4py06mlt8x" class="animable"></path><path d="M259.18,166.3c-.33-.24-.51-.54-.41-.65s.46,0,.79.23.52.53.42.65S259.52,166.54,259.18,166.3Z" style="fill: rgb(255, 193, 0); transform-origin: 259.375px 166.093px;" id="eltpsv81jaxs" class="animable"></path><path d="M260.57,164c-.45,0-.78-.17-.75-.31s.43-.23.88-.2.78.18.74.32S261,164.08,260.57,164Z" style="fill: rgb(255, 193, 0); transform-origin: 260.631px 163.754px;" id="el6nnhvot126l" class="animable"></path><path d="M260.65,161.62c-.44.18-.83.23-.88.1s.28-.38.72-.56.84-.23.88-.11S261.09,161.44,260.65,161.62Z" style="fill: rgb(255, 193, 0); transform-origin: 260.569px 161.389px;" id="el08gkd4kgs6x5" class="animable"></path><path d="M259.41,159.68c-.32.35-.66.57-.77.49s.06-.43.37-.78.67-.58.78-.5S259.73,159.33,259.41,159.68Z" style="fill: rgb(255, 193, 0); transform-origin: 259.215px 159.53px;" id="el2pf5ng4loer" class="animable"></path><path d="M258.62,170.59a2.63,2.63,0,0,1-2.5,1.89h0L244,171.57a2,2,0,0,1-1.91-2.6,3.1,3.1,0,0,1,2.9-2.22,5.23,5.23,0,0,1,5.23-3.61,3.41,3.41,0,0,1,3.3,3,2.85,2.85,0,0,1,1.19-.17,2,2,0,0,1,1.94,2.45H257A1.72,1.72,0,0,1,258.62,170.59Z" style="fill: rgb(255, 255, 255); transform-origin: 250.339px 167.807px;" id="elhoxgwl3uenb" class="animable"></path><path d="M258.62,170.59a2.71,2.71,0,0,1-2.48,1.92c-3.3-.24-6.6-.4-9.89-.6-.83-.06-1.63-.09-2.48-.16-2.1-.25-2.56-2.82-1.15-4.18a3.29,3.29,0,0,1,2.36-1.06l-.22.17c.87-2.94,4.65-4.76,7.33-3.07a3.41,3.41,0,0,1,1.52,2.48l-.11-.07c1.56-.65,3.59.57,3.17,2.36a1.76,1.76,0,0,1,1.95,2.21Zm0,0a1.77,1.77,0,0,0-2-2.19,2.12,2.12,0,0,0-3.07-2.22c-.13,0-.08,0-.11-.07-.84-4.5-7.34-3-8.22.7l-.05.17H245c-2.43,0-4.12,3.68-1.16,4.35,4,.41,8.32.76,12.27,1.14a2.71,2.71,0,0,0,2.52-1.89Z" style="fill: rgb(38, 50, 56); transform-origin: 250.247px 167.736px;" id="elnehp1tf7bsr" class="animable"></path><path d="M248.62,138.33l-1.53,6a.72.72,0,0,1-.73.51.46.46,0,0,1-.44-.6l1.27-5-.48.2a.63.63,0,0,1-.32.06.48.48,0,0,1-.43-.32.62.62,0,0,1,.39-.75l1.49-.64,0,0,.06,0h.34s0,0,.06,0h0l.06,0,0,0,0,0s0,0,0,.05a.05.05,0,0,1,0,0l0,0v.06a.09.09,0,0,1,0,0,.07.07,0,0,0,0,.05s0,0,0,0,0,.05,0,.07Z" style="fill: rgb(38, 50, 56); transform-origin: 247.259px 141.316px;" id="elooztykr80na" class="animable"></path><path d="M249.2,141.43a5.15,5.15,0,0,1,1.34-2.37,3,3,0,0,1,2.26-1,1.94,1.94,0,0,1,1.67,1.28,3.86,3.86,0,0,1,.09,2.47,5,5,0,0,1-1.32,2.37,3,3,0,0,1-2.25,1,2,2,0,0,1-1.69-1.27A4,4,0,0,1,249.2,141.43Zm4.19.31a3.11,3.11,0,0,0,0-1.84,1,1,0,0,0-.83-.69,1.56,1.56,0,0,0-1.16.54,3.87,3.87,0,0,0-1,1.77,2.93,2.93,0,0,0,.05,1.83,1,1,0,0,0,.84.7,1.54,1.54,0,0,0,1.15-.55A3.93,3.93,0,0,0,253.39,141.74Z" style="fill: rgb(38, 50, 56); transform-origin: 251.885px 141.62px;" id="ellpe23ghanw" class="animable"></path><path d="M257.19,140.07a.64.64,0,0,1,.6.82,1,1,0,0,1-1,.69.64.64,0,0,1-.6-.81A1,1,0,0,1,257.19,140.07Zm-1,4a.64.64,0,0,1,.6.82,1,1,0,0,1-1,.69.63.63,0,0,1-.6-.81A1,1,0,0,1,256.16,144.1Z" style="fill: rgb(38, 50, 56); transform-origin: 256.49px 142.825px;" id="elj80xokc21tg" class="animable"></path><path d="M263.37,141.73a2.18,2.18,0,0,1,.32,1.84,3.25,3.25,0,0,1-3.27,2.32h0a2.18,2.18,0,0,1-1.66-.88.57.57,0,0,1,.21-.81.61.61,0,0,1,.85.06,1.16,1.16,0,0,0,.91.49,1.78,1.78,0,0,0,1.78-1.27,1.15,1.15,0,0,0-1.08-1.47,1.64,1.64,0,0,0-1.12.32.62.62,0,0,1-.85-.07s-.05-.09-.08-.14,0,0,0,0a.07.07,0,0,0,0-.05.16.16,0,0,0,0-.07s0,0,0,0a.48.48,0,0,1,0-.18l1-2.6a.8.8,0,0,1,.37-.38l.05,0,0,0a.75.75,0,0,1,.3,0l3.12.24a.48.48,0,0,1,.46.62.74.74,0,0,1-.75.52l-2.61-.19-.38,1a3,3,0,0,1,.73,0A2.23,2.23,0,0,1,263.37,141.73Z" style="fill: rgb(38, 50, 56); transform-origin: 261.685px 142.359px;" id="el9848sjd1gpa" class="animable"></path><path d="M270.15,144.7a.71.71,0,0,1-.73.52h-.11l-.2.77a.69.69,0,0,1-.72.51.46.46,0,0,1-.44-.6l.2-.77-3.32-.25h0a.45.45,0,0,1-.33-.15.53.53,0,0,1,.1-.79l5.11-4.37,0,0a.05.05,0,0,0,0,0,.1.1,0,0,0,.06,0l.05,0s0,0,.07,0,0,0,.05,0l.07,0a0,0,0,0,0,.05,0h.18l0,0s0,0,.05,0h0a.23.23,0,0,0,.05.05l0,0h0a0,0,0,0,1,0,0l0,0s0,0,0,0a.16.16,0,0,1,0,.06.06.06,0,0,0,0,0s0,0,0,.06,0,0,0,0a.15.15,0,0,1,0,.06V140l-1,4.09h.1A.47.47,0,0,1,270.15,144.7Zm-1.08-3.2-2.75,2.35,2.11.16Z" style="fill: rgb(38, 50, 56); transform-origin: 267.355px 143.036px;" id="eledid725alcs" class="animable"></path><path d="M245.14,146.93l-.68-.05a.06.06,0,0,1-.06-.08.11.11,0,0,1,.1-.07l1.51.11c.05,0,.07,0,.06.08a.09.09,0,0,1-.09.08l-.69-.06-.49,1.94a.1.1,0,0,1-.1.07s-.06,0,0-.08Z" style="fill: rgb(38, 50, 56); transform-origin: 245.235px 147.84px;" id="el9e2k8wp7za" class="animable"></path><path d="M246.11,147.59a.09.09,0,0,1,.1-.07.06.06,0,0,1,.06.08l-.21.82a.39.39,0,0,0,.36.51.62.62,0,0,0,.61-.44l.21-.82a.11.11,0,0,1,.1-.07s.07,0,.06.08l-.21.83a.8.8,0,0,1-.81.57.53.53,0,0,1-.48-.67Z" style="fill: rgb(38, 50, 56); transform-origin: 246.641px 148.3px;" id="el35q7vnnz40q" class="animable"></path><path d="M247.84,148.42a.94.94,0,0,1,1-.7.62.62,0,0,1,.58.76h0a.1.1,0,0,1-.1.06l-1.3-.1a.51.51,0,0,0,.47.63.7.7,0,0,0,.58-.24.09.09,0,0,1,.11,0,.07.07,0,0,1,0,.1.93.93,0,0,1-.73.3A.62.62,0,0,1,247.84,148.42Zm.19-.11,1.2.09a.5.5,0,0,0-.47-.54A.78.78,0,0,0,248,148.31Z" style="fill: rgb(38, 50, 56); transform-origin: 248.623px 148.473px;" id="el5wgm248rc7" class="animable"></path><path d="M249.69,149a.11.11,0,0,1,.12,0,.71.71,0,0,0,.43.22.58.58,0,0,0,.33-.07.33.33,0,0,0,.17-.18.22.22,0,0,0-.07-.19.69.69,0,0,0-.31-.14h0a.78.78,0,0,1-.33-.15.25.25,0,0,1-.1-.28.52.52,0,0,1,.24-.29.91.91,0,0,1,.42-.07.82.82,0,0,1,.43.2s0,.07,0,.11a.09.09,0,0,1-.11,0,.59.59,0,0,0-.35-.18.61.61,0,0,0-.32.06.28.28,0,0,0-.14.17.15.15,0,0,0,0,.16.79.79,0,0,0,.29.13h0a.81.81,0,0,1,.35.15.31.31,0,0,1,.1.32.46.46,0,0,1-.26.29.68.68,0,0,1-.42.09.78.78,0,0,1-.53-.26A.07.07,0,0,1,249.69,149Z" style="fill: rgb(38, 50, 56); transform-origin: 250.323px 148.601px;" id="ela4c8257w9xg" class="animable"></path><path d="M252.65,149.25a.9.9,0,0,1-.68.25.62.62,0,0,1-.57-.81,1,1,0,0,1,1-.71.65.65,0,0,1,.53.35l.22-.87a.09.09,0,0,1,.1-.07.06.06,0,0,1,.06.08l-.33,1.3v0l-.18.68a.1.1,0,0,1-.09.07.06.06,0,0,1-.06-.08Zm.11-.44,0-.05a.5.5,0,0,0-.46-.62.75.75,0,0,0-.76.56.5.5,0,0,0,.45.65A.77.77,0,0,0,252.76,148.81Z" style="fill: rgb(38, 50, 56); transform-origin: 252.342px 148.455px;" id="elfnub6nlws3g" class="animable"></path><path d="M255.14,148.27l-.35,1.36a.1.1,0,0,1-.1.07.06.06,0,0,1-.06-.08l.06-.22a.89.89,0,0,1-.67.25.61.61,0,0,1-.55-.81.93.93,0,0,1,.94-.7.61.61,0,0,1,.52.34l0-.22a.1.1,0,0,1,.1-.07A.06.06,0,0,1,255.14,148.27Zm-.33.67a.5.5,0,0,0-.44-.66.77.77,0,0,0-.75.57.49.49,0,0,0,.44.65A.75.75,0,0,0,254.81,148.94Z" style="fill: rgb(38, 50, 56); transform-origin: 254.294px 148.92px;" id="elien64z2e0j" class="animable"></path><path d="M255.78,148.31a.09.09,0,0,1,.09-.06.06.06,0,0,1,.06.08l-.21.82a.39.39,0,0,0,.37.5.6.6,0,0,0,.61-.43l.21-.82a.08.08,0,0,1,0,0h.12s0,0,0,0v0l-.21.82v0l-.13.47a.91.91,0,0,1-.93.66.81.81,0,0,1-.31-.1.07.07,0,0,1,0-.1.09.09,0,0,1,.11,0,.57.57,0,0,0,.24.08.74.74,0,0,0,.74-.52l0-.1a.79.79,0,0,1-.55.18.51.51,0,0,1-.48-.66Z" style="fill: rgb(38, 50, 56); transform-origin: 256.229px 149.301px;" id="el4woff1ufu9p" class="animable"></path><path d="M257,150.12a.29.29,0,0,0,.21-.23.08.08,0,0,1-.06-.11l0-.07a.11.11,0,0,1,.13-.09c.06,0,.09,0,.08.11l0,.08a.55.55,0,0,1-.17.31.51.51,0,0,1-.19.09s-.05,0,0-.05S257,150.13,257,150.12Z" style="fill: rgb(38, 50, 56); transform-origin: 257.17px 149.914px;" id="ele1vczz2lbu" class="animable"></path><path d="M260,147.9a.39.39,0,0,1,.36.49.58.58,0,0,0,0,1,.9.9,0,0,1-.91.64.58.58,0,0,1-.56-.75.94.94,0,0,1,.62-.62.38.38,0,0,1-.09-.38A.57.57,0,0,1,260,147.9Zm-.51,2a.7.7,0,0,0,.71-.51.46.46,0,0,0-.43-.6.72.72,0,0,0-.72.51A.47.47,0,0,0,259.53,149.92Zm.32-1.26a.4.4,0,0,0,.39-.29.25.25,0,0,0-.24-.32.39.39,0,0,0-.39.28A.26.26,0,0,0,259.85,148.66Z" style="fill: rgb(38, 50, 56); transform-origin: 259.619px 148.965px;" id="elctlt5uyqu8q" class="animable"></path><path d="M264.13,148.53l-1,.9a.07.07,0,0,1-.07,0h0a.05.05,0,0,1-.05,0l-.48-1-.46,1.78a.08.08,0,0,1-.09.06.06.06,0,0,1-.06-.08l.51-2a.07.07,0,0,1,0,0h0a.08.08,0,0,1,.11,0l.53,1.12,1.07-1s.09,0,.11,0,0,0,0,0,0,0,0,0l-.51,2a.08.08,0,0,1-.09.06c-.05,0-.07,0-.06-.08Z" style="fill: rgb(38, 50, 56); transform-origin: 263.088px 149.27px;" id="eln06ew56f5j" class="animable"></path><path d="M266.3,149.11l-.35,1.37a.08.08,0,0,1-.09.06.06.06,0,0,1-.06-.08l.05-.22a.88.88,0,0,1-.67.25.62.62,0,0,1-.55-.81.94.94,0,0,1,.94-.7.61.61,0,0,1,.52.34l.06-.22a.1.1,0,0,1,.09-.07A.06.06,0,0,1,266.3,149.11Zm-.33.67a.49.49,0,0,0-.44-.65.75.75,0,0,0-.75.56.51.51,0,0,0,.44.66A.77.77,0,0,0,266,149.78Z" style="fill: rgb(38, 50, 56); transform-origin: 265.452px 149.76px;" id="el0b1gc0me3nrs" class="animable"></path><path d="M266.94,149.16a.11.11,0,0,1,.09-.07.07.07,0,0,1,.07.08l-.21.82a.38.38,0,0,0,.36.5.6.6,0,0,0,.61-.43l.21-.82s0,0,0,0h.09l0,0s0,0,0,0a0,0,0,0,1,0,0l-.21.83v0l-.12.48a.92.92,0,0,1-.93.65.76.76,0,0,1-.31-.1.07.07,0,0,1,0-.1.11.11,0,0,1,.11,0,.49.49,0,0,0,.24.08.71.71,0,0,0,.74-.52l0-.1a.74.74,0,0,1-.55.18.51.51,0,0,1-.48-.66Z" style="fill: rgb(38, 50, 56); transform-origin: 267.364px 150.146px;" id="elz7012zipsrn" class="animable"></path><path d="M248.54,173.76l-.47,1.82a.21.21,0,0,1-.22.16.14.14,0,0,1-.13-.18l.38-1.52-.14.06-.1,0a.15.15,0,0,1-.13-.1.19.19,0,0,1,.12-.23l.45-.19h.22v0h0v0h0v0Z" style="fill: rgb(38, 50, 56); transform-origin: 248.127px 174.66px;" id="elbc57xg6357h" class="animable"></path><path d="M250.2,175.16a.94.94,0,0,1-1,.68.63.63,0,0,1-.61-.73h0a1.16,1.16,0,0,1,0-.18,1.89,1.89,0,0,1,.27-.62,1.4,1.4,0,0,1,.55-.5,1,1,0,0,1,.52-.11.15.15,0,0,1,.15.18.25.25,0,0,1-.22.17.7.7,0,0,0-.33.06,1,1,0,0,0-.26.2l-.06.08a.75.75,0,0,1,.33,0A.63.63,0,0,1,250.2,175.16Zm-.36,0a.34.34,0,0,0-.32-.44.53.53,0,0,0-.53.37.35.35,0,0,0,.32.44A.51.51,0,0,0,249.84,175.13Z" style="fill: rgb(38, 50, 56); transform-origin: 249.399px 174.772px;" id="elrcha4gypkr" class="animable"></path><path d="M250.7,175a.1.1,0,0,1,.08-.06l.83.07a0,0,0,0,1,0,.06.08.08,0,0,1-.08.06l-.83-.06A.08.08,0,0,1,250.7,175Zm.21-.75h0a.56.56,0,0,1,.58-.41.37.37,0,0,1,.35.48h0a.56.56,0,0,1-.58.42A.37.37,0,0,1,250.91,174.22Zm.79.06h0a.26.26,0,0,0-.24-.35.4.4,0,0,0-.41.3h0a.27.27,0,0,0,.24.36A.4.4,0,0,0,251.7,174.28Z" style="fill: rgb(38, 50, 56); transform-origin: 251.274px 174.484px;" id="el7mwgk60s8el" class="animable"></path><polygon points="213.52 246.44 201.29 245.51 204.28 233.81 216.51 234.73 213.52 246.44" style="fill: rgb(255, 193, 0); transform-origin: 208.9px 240.125px;" id="elxvis0h2v32" class="animable"></polygon><path d="M205.73,237.24a2.06,2.06,0,0,0-.27.33c-.08.12-.13.25-.2.38l-.1.4c0,.15,0,.29,0,.44a3.55,3.55,0,0,0,.3,1.55,8,8,0,0,0,2.15,2.94,3.71,3.71,0,0,0,1.42.78l.41.11.44,0,.26,0a1.26,1.26,0,0,0,.56-.2.05.05,0,0,0,0,0c-.46-.62-.92-1.25-1.37-1.88a.09.09,0,0,0-.1,0,.84.84,0,0,1-.83-.25,14,14,0,0,1-1.22-1.67.77.77,0,0,1,0-.85.09.09,0,0,0,0-.11c-.45-.62-.9-1.24-1.36-1.85Z" style="fill: rgb(255, 255, 255); transform-origin: 207.929px 240.705px;" id="elp4fpqbnhzn" class="animable"></path><path d="M211.14,243.64l.05,0c.27-.18.53-.37.79-.56s.23-.28.11-.44l-1-1.41c-.12-.16-.28-.17-.47,0l-.67.48-.18.11Z" style="fill: rgb(255, 255, 255); transform-origin: 210.975px 242.373px;" id="elrlh1hrc1py" class="animable"></path><path d="M206.21,236.92c.46.64.92,1.27,1.37,1.87l.87-.59c.17-.12.21-.27.1-.42l-1.05-1.43q-.17-.22-.45,0l-.8.57Z" style="fill: rgb(255, 255, 255); transform-origin: 207.411px 237.515px;" id="elxlsopomw63" class="animable"></path><polygon points="260.72 250 248.49 249.08 251.48 237.37 263.71 238.29 260.72 250" style="fill: rgb(69, 90, 100); transform-origin: 256.1px 243.685px;" id="eloc60tov98f" class="animable"></polygon><polygon points="259.76 247.13 250.85 246.46 252.18 241.24 261.09 241.91 259.76 247.13" style="fill: rgb(255, 255, 255); transform-origin: 255.97px 244.185px;" id="elbufsr8aq8jr" class="animable"></polygon><polygon points="258.85 241.75 254.42 241.41 255.12 240.44 258.67 240.71 258.85 241.75" style="fill: rgb(255, 255, 255); transform-origin: 256.635px 241.095px;" id="eldjbdudmriz" class="animable"></polygon><path d="M258,244.34a2.54,2.54,0,0,1-2.57,1.82A1.66,1.66,0,0,1,253.9,244a2.54,2.54,0,0,1,2.58-1.82A1.66,1.66,0,0,1,258,244.34Z" style="fill: rgb(69, 90, 100); transform-origin: 255.95px 244.17px;" id="eloy4qxfsv4g" class="animable"></path><path d="M257.58,244.31a2,2,0,0,1-2,1.41,1.3,1.3,0,0,1-1.22-1.66,2,2,0,0,1,2-1.41A1.3,1.3,0,0,1,257.58,244.31Z" style="fill: rgb(255, 255, 255); transform-origin: 255.97px 244.185px;" id="elmmk3ya8sd" class="animable"></path><polygon points="260.33 242.79 259.48 242.72 259.6 242.25 260.45 242.32 260.33 242.79" style="fill: rgb(69, 90, 100); transform-origin: 259.965px 242.52px;" id="el5h10ufjoiyc" class="animable"></polygon><polygon points="253.36 241.18 252.52 241.11 252.58 240.88 253.42 240.94 253.36 241.18" style="fill: rgb(255, 255, 255); transform-origin: 252.97px 241.03px;" id="eli335ins8ft" class="animable"></polygon><polygon points="229.26 247.62 217.03 246.7 220.01 235 232.24 235.92 229.26 247.62" style="fill: rgb(69, 90, 100); transform-origin: 224.635px 241.31px;" id="el9eoe8ed1nwv" class="animable"></polygon><path d="M222.7,244.73a1.46,1.46,0,0,1-1.47,1.05,1,1,0,0,1-.9-1.23,1.46,1.46,0,0,1,1.48-1A1,1,0,0,1,222.7,244.73Z" style="fill: rgb(255, 255, 255); transform-origin: 221.51px 244.664px;" id="ele8l3zqmc0nf" class="animable"></path><polygon points="223.26 238.93 224.17 239 222.71 244.72 221.8 244.65 223.26 238.93" style="fill: rgb(255, 255, 255); transform-origin: 222.985px 241.825px;" id="el3qtd40lmb7o" class="animable"></polygon><path d="M227,243.37a1.46,1.46,0,0,1-1.48,1,1,1,0,0,1-.89-1.23,1.46,1.46,0,0,1,1.48-1.05A1,1,0,0,1,227,243.37Z" style="fill: rgb(255, 255, 255); transform-origin: 225.822px 243.23px;" id="ellvagdslydnf" class="animable"></path><polygon points="227.53 237.57 228.44 237.64 226.98 243.36 226.07 243.29 227.53 237.57" style="fill: rgb(255, 255, 255); transform-origin: 227.255px 240.465px;" id="elaspiqx1tdl6" class="animable"></polygon><polygon points="228.43 237.65 223.06 239.7 223.26 238.93 228.63 236.89 228.43 237.65" style="fill: rgb(255, 255, 255); transform-origin: 225.845px 238.295px;" id="elazbfd6zli2n" class="animable"></polygon><polygon points="228.07 239.09 222.7 241.14 222.89 240.38 228.26 238.33 228.07 239.09" style="fill: rgb(255, 255, 255); transform-origin: 225.48px 239.735px;" id="elimpg3h01jx" class="animable"></polygon><polygon points="244.99 248.81 232.76 247.89 235.75 236.19 247.97 237.11 244.99 248.81" style="fill: rgb(255, 193, 0); transform-origin: 240.365px 242.5px;" id="elyfnrhtzqowj" class="animable"></polygon><polygon points="244.05 245.47 235.34 244.81 236.69 239.53 245.4 240.18 244.05 245.47" style="fill: rgb(255, 255, 255); transform-origin: 240.37px 242.5px;" id="eljvyaiybodz" class="animable"></polygon><path d="M245.4,240.18l-1.31.87-1.31.85-1.37.86,0,0-1.21.76-.06,0,0,0c-.26-.3-.53-.6-.79-.91l0,0-.88-1-.84-1-.83-1c.31.3.6.62.9.93s.59.63.88.95l1,1.08h0l.72.81,1.11-.67h0l1.47-.89,1.33-.78C244.51,240.69,245,240.43,245.4,240.18Z" style="fill: rgb(255, 193, 0); transform-origin: 241.1px 241.565px;" id="elwaj7twhm7c" class="animable"></path><path d="M239.42,242.61h0l-.16.1c-.26.16-.53.31-.8.46l-1,.52c-.33.17-.67.34-1,.49s-.68.32-1,.46c.32-.21.65-.39,1-.57l1-.53,1-.49.82-.37.19-.07Z" style="fill: rgb(255, 193, 0); transform-origin: 237.465px 243.625px;" id="elkd49ew9qlv" class="animable"></path><path d="M244.07,245.3a8.73,8.73,0,0,1-.77-.59l-.72-.62c-.24-.21-.47-.43-.7-.65s-.37-.37-.54-.56l-.11-.12h0l.14.11c.21.15.41.31.61.47s.49.41.73.62.47.43.69.66S243.86,245.06,244.07,245.3Z" style="fill: rgb(255, 193, 0); transform-origin: 242.65px 244.03px;" id="elgzacqwfft7b" class="animable"></path><polygon points="267.59 223.12 255.36 222.2 258.34 210.5 270.57 211.42 267.59 223.12" style="fill: rgb(38, 50, 56); transform-origin: 262.965px 216.81px;" id="elbqs854ecn7" class="animable"></polygon><path d="M266.57,217.8a.49.49,0,0,1-.16-.55,1.21,1.21,0,0,0,0-.18,1.16,1.16,0,0,0,0-.18.74.74,0,0,1,.43-.5l.76-.32L267,213.9l-.76.32a.61.61,0,0,1-.62-.07l-.28-.21a.46.46,0,0,1-.2-.53l.19-.73-2.51-.19-.19.73a.72.72,0,0,1-.46.49l-.37.15a.62.62,0,0,1-.63,0l-.57-.41-1.78,2,.57.42a.47.47,0,0,1,.16.55,1.54,1.54,0,0,0,0,.17,1.16,1.16,0,0,0,0,.18.69.69,0,0,1-.43.51l-.76.32.72,2.17.76-.32a.62.62,0,0,1,.62.07,2.83,2.83,0,0,0,.28.2.46.46,0,0,1,.2.53l-.19.74,2.51.19.19-.74a.71.71,0,0,1,.46-.48l.37-.15a.61.61,0,0,1,.63,0l.57.42,1.78-2Zm-4.11,1a1.65,1.65,0,0,1-1.55-2.12,2.52,2.52,0,0,1,2.56-1.8A1.65,1.65,0,0,1,265,217,2.52,2.52,0,0,1,262.46,218.77Z" style="fill: rgb(255, 255, 255); transform-origin: 262.98px 216.835px;" id="el66gls104jah" class="animable"></path><path d="M264.39,216.92a1.75,1.75,0,0,1-1.77,1.25,1.15,1.15,0,0,1-1.08-1.47,1.76,1.76,0,0,1,1.77-1.26A1.15,1.15,0,0,1,264.39,216.92Z" style="fill: rgb(255, 255, 255); transform-origin: 262.966px 216.805px;" id="el59j3wy47165" class="animable"></path><polygon points="220.38 219.56 208.15 218.64 211.14 206.93 223.37 207.86 220.38 219.56" style="fill: rgb(69, 90, 100); transform-origin: 215.76px 213.245px;" id="elzk5dtj43z4i" class="animable"></polygon><path d="M219.82,213.3a4.63,4.63,0,0,1-4.85,3c-2.21-.17-3.62-1.79-3.15-3.62s2.64-3.18,4.85-3S220.29,211.47,219.82,213.3Z" style="fill: rgb(255, 255, 255); transform-origin: 215.82px 212.996px;" id="elq6n1k7uqnw7" class="animable"></path><polygon points="212.44 214.66 211.23 216.53 213.97 215.97 212.44 214.66" style="fill: rgb(255, 255, 255); transform-origin: 212.6px 215.595px;" id="elygin8o4hhbd" class="animable"></polygon><polygon points="236.12 220.75 223.89 219.82 226.87 208.12 239.1 209.04 236.12 220.75" style="fill: rgb(38, 50, 56); transform-origin: 231.495px 214.435px;" id="elerhu4shqxbi" class="animable"></polygon><path d="M229.35,215.56l-1.63-.12c.16-.61.3-1.19.46-1.79l1.6.12c0-.14.08-.24.11-.35.13-.47.23-.94.39-1.41a2.55,2.55,0,0,1,2.31-1.75,15.63,15.63,0,0,1,2,.13l-.41,1.63-.74-.05a3.74,3.74,0,0,0-.67,0,.75.75,0,0,0-.66.53c-.14.45-.24.91-.37,1.41l1.86.14c-.23.58-.43,1.12-.66,1.66,0,.05-.18.1-.26.1-.45,0-.9-.06-1.39-.1l-1.17,4.6-2-.15C228.57,218.63,229,217.11,229.35,215.56Z" style="fill: rgb(255, 255, 255); transform-origin: 231.155px 215.285px;" id="el6u9lpktsm3m" class="animable"></path><path d="M240.11,209.8a2.26,2.26,0,0,1-2.29,1.62,1.48,1.48,0,0,1-1.39-1.9,2.26,2.26,0,0,1,2.29-1.62A1.48,1.48,0,0,1,240.11,209.8Z" style="fill: rgb(255, 193, 0); transform-origin: 238.27px 209.66px;" id="el060vvjitf949" class="animable"></path><path d="M238.74,210.53a.2.2,0,0,1-.2.15l-1-.08h0a.24.24,0,0,1-.11-.06.17.17,0,0,1,.07-.22l1-.68a.4.4,0,0,0,.19-.26.27.27,0,0,0,0-.25.31.31,0,0,0-.25-.14.49.49,0,0,0-.28.07l-.11.07a.15.15,0,0,1-.22,0,.17.17,0,0,1,.06-.22l.12-.07a.81.81,0,0,1,.51-.14.57.57,0,0,1,.53.72.84.84,0,0,1-.36.48l-.67.44.62.05A.12.12,0,0,1,238.74,210.53Z" style="fill: rgb(255, 255, 255); transform-origin: 238.242px 209.689px;" id="el49gryo00g95" class="animable"></path><polygon points="251.85 221.93 239.62 221.01 242.61 209.31 254.84 210.23 251.85 221.93" style="fill: rgb(69, 90, 100); transform-origin: 247.23px 215.62px;" id="elvawulamjap" class="animable"></polygon><path d="M242.18,219.17c.33-.58.62-1.13.94-1.67a.58.58,0,0,0,.07-.49c-.61-2.44,1.72-5.14,4.52-5.26,2.57-.1,4.23,1.86,3.57,4.24a5.05,5.05,0,0,1-4.77,3.43,4.06,4.06,0,0,1-1.91-.51.59.59,0,0,0-.37-.06C243.56,218.94,242.9,219.06,242.18,219.17Zm1.21-.83c.42-.07.78-.14,1.14-.18a.58.58,0,0,1,.35.07,3.11,3.11,0,0,0,1.52.53,4.07,4.07,0,0,0,4.31-3.49,2.49,2.49,0,0,0-1.88-2.71,3.78,3.78,0,0,0-3.82,1A3.19,3.19,0,0,0,244,217a.57.57,0,0,1,0,.38C243.75,217.71,243.58,218,243.39,218.34Z" style="fill: rgb(255, 255, 255); transform-origin: 246.803px 215.583px;" id="eloij7wsyzuxt" class="animable"></path><path d="M245.88,213.91c.36-.34.71-.24.81.16,0,.16,0,.22.07.4a.54.54,0,0,1-.27.6.26.26,0,0,0-.13.37,2.26,2.26,0,0,0,1,1.08.31.31,0,0,0,.39-.05c.46-.38.47-.38.91-.11l.15.09c.34.2.31.54-.07.81a1.28,1.28,0,0,1-1.2.17,3.2,3.2,0,0,1-2-2,1.31,1.31,0,0,1-.09-.9A1.61,1.61,0,0,1,245.88,213.91Z" style="fill: rgb(255, 255, 255); transform-origin: 247.227px 215.606px;" id="el4ctiwx9b1h7" class="animable"></path><path d="M231.66,227a1.22,1.22,0,0,1-1.24.88.8.8,0,0,1-.75-1,1.23,1.23,0,0,1,1.24-.87A.79.79,0,0,1,231.66,227Z" style="fill: rgb(255, 193, 0); transform-origin: 230.665px 226.945px;" id="elm0pfk0ok8a9" class="animable"></path><path d="M237.72,227.47a1.85,1.85,0,0,1-1.87,1.33,1.22,1.22,0,0,1-1.14-1.56,1.84,1.84,0,0,1,1.87-1.32A1.21,1.21,0,0,1,237.72,227.47Z" style="fill: rgb(255, 193, 0); transform-origin: 236.215px 227.36px;" id="el7bbu9a6c5qk" class="animable"></path><path d="M242.76,227.85a1.23,1.23,0,0,1-1.24.88.8.8,0,0,1-.75-1,1.23,1.23,0,0,1,1.23-.88A.82.82,0,0,1,242.76,227.85Z" style="fill: rgb(255, 193, 0); transform-origin: 241.762px 227.79px;" id="elwpxjv7eq9gl" class="animable"></path><path d="M267.29,164.88a26.65,26.65,0,0,1,7.3-7.63,27,27,0,0,1,9.69-4.42l.65-.18.66-.1,1.33-.2,1.32-.19c.45,0,.89,0,1.34-.06.89,0,1.79,0,2.68,0l2.65.27,1.33.16,1.3.3,2.59.6a24.64,24.64,0,0,1,2.5.87l2.48.93-.05.12c-1.7-.45-3.38-1-5.07-1.37l-2.58-.46-1.28-.23-1.3-.08-2.6-.18c-.87,0-1.73.08-2.59.11-.44,0-.87,0-1.3.06l-1.28.2-1.28.2-.64.11-.62.16a29.69,29.69,0,0,0-9.49,4.06c-.75.45-1.42,1-2.14,1.49s-1.35,1.11-2,1.68A29.59,29.59,0,0,0,267.29,164.88Z" style="fill: rgb(38, 50, 56); transform-origin: 286.2px 158.49px;" id="eldkhd6c8306j" class="animable"></path><polygon points="300.43 158.16 300.02 157.21 304.69 155.16 302.31 150.64 303.22 150.16 306.13 155.66 300.43 158.16" style="fill: rgb(38, 50, 56); transform-origin: 303.075px 154.16px;" id="elijciotxk39g" class="animable"></polygon><path d="M226.5,226.08a26.69,26.69,0,0,1-10.34,2.14,27.13,27.13,0,0,1-10.49-1.87l-.63-.23-.6-.29-1.21-.59-1.2-.59c-.39-.22-.75-.48-1.13-.72-.75-.49-1.5-1-2.23-1.48l-2-1.74-1-.88-.9-1-1.79-2a25.56,25.56,0,0,1-1.57-2.14l-1.51-2.17.11-.07c1.14,1.34,2.23,2.71,3.4,4l1.86,1.84.92.92,1,.8,2,1.63c.72.48,1.47.92,2.2,1.38.36.23.72.48,1.1.69l1.17.56,1.16.56.59.28.61.22a29.78,29.78,0,0,0,10.11,2.05c.87.05,1.74,0,2.61,0s1.73-.14,2.6-.24A29.32,29.32,0,0,0,226.5,226.08Z" style="fill: rgb(38, 50, 56); transform-origin: 208.2px 220.338px;" id="el23r74aq0f9h" class="animable"></path><polygon points="195.41 212.78 195.21 213.8 190.2 212.83 189.6 217.9 188.57 217.78 189.3 211.6 195.41 212.78" style="fill: rgb(38, 50, 56); transform-origin: 191.99px 214.75px;" id="eldf4zzct54ad" class="animable"></polygon><path d="M267.11,200.78a33.7,33.7,0,0,0,2.14,4.19c.4.67.82,1.33,1.24,2s.9,1.28,1.38,1.9a35.54,35.54,0,0,0,6.54,6.6,37.5,37.5,0,0,0,12.4,6.28c1.5.45,3,.72,4.58,1.1l0,.15-2.35-.31a14.41,14.41,0,0,1-2.35-.39,31.9,31.9,0,0,1-4.57-1.35,29.86,29.86,0,0,1-8.33-4.67,30.18,30.18,0,0,1-6.53-7A29,29,0,0,1,267.11,200.78Z" style="fill: rgb(38, 50, 56); transform-origin: 281.25px 211.89px;" id="eldjgdd5j00ze" class="animable"></path><polygon points="291.36 226.55 290.77 225.69 294.99 222.81 291.81 218.82 292.62 218.17 296.5 223.04 291.36 226.55" style="fill: rgb(38, 50, 56); transform-origin: 293.635px 222.36px;" id="eljddkbgkogr" class="animable"></polygon><path d="M214.53,120.47a31.93,31.93,0,0,0,1.71,3.65,34.88,34.88,0,0,0,2,3.44,32.71,32.71,0,0,0,5.15,6,23.68,23.68,0,0,0,6.59,4.29c.61.25,1.21.55,1.84.77l1.91.54a12,12,0,0,0,2,.41l2,.33v.17a22.48,22.48,0,0,1-8-1.43l-1-.35-.91-.48a19.76,19.76,0,0,1-1.81-1l-1.7-1.17c-.55-.41-1.05-.88-1.57-1.33a27.06,27.06,0,0,1-5.11-6.38A27.56,27.56,0,0,1,214.53,120.47Z" style="fill: rgb(38, 50, 56); transform-origin: 226.13px 130.27px;" id="elx31v72nuvkh" class="animable"></path><polygon points="233.93 143.89 233.29 143.08 237.31 139.92 233.86 136.15 234.63 135.45 238.82 140.04 233.93 143.89" style="fill: rgb(38, 50, 56); transform-origin: 236.055px 139.67px;" id="eljwvzxyu4nx7" class="animable"></polygon><path d="M310.73,156.79a203.13,203.13,0,0,1,24.92,0,203.13,203.13,0,0,1-24.92,0Z" style="fill: rgb(219, 219, 219); transform-origin: 323.19px 156.79px;" id="el3an276pc2lo" class="animable"></path><path d="M310.73,160.18a65.19,65.19,0,0,1,14.24,0,65.82,65.82,0,0,1-14.24,0Z" style="fill: rgb(219, 219, 219); transform-origin: 317.85px 160.178px;" id="elnt4tqjxqqlc" class="animable"></path><path d="M190.38,116.29a203.13,203.13,0,0,1,24.92,0,201.17,201.17,0,0,1-24.92,0Z" style="fill: rgb(219, 219, 219); transform-origin: 202.84px 116.292px;" id="elrgz5podhuy" class="animable"></path><path d="M190.38,119.68a65.82,65.82,0,0,1,14.24,0,65.82,65.82,0,0,1-14.24,0Z" style="fill: rgb(219, 219, 219); transform-origin: 197.5px 119.68px;" id="elo6jzv7re5cr" class="animable"></path><path d="M301.6,227.3c10.08-.5,20.19-.5,30.27,0a299.63,299.63,0,0,1-30.27,0Z" style="fill: rgb(219, 219, 219); transform-origin: 316.735px 227.304px;" id="elwv7fml39h2c" class="animable"></path><path d="M301.6,223.92a201.17,201.17,0,0,1,24.92,0,203.13,203.13,0,0,1-24.92,0Z" style="fill: rgb(219, 219, 219); transform-origin: 314.06px 223.918px;" id="elcinw63dakem" class="animable"></path><path d="M301.6,230.69a119,119,0,0,1,19.07,0,117.88,117.88,0,0,1-19.07,0Z" style="fill: rgb(219, 219, 219); transform-origin: 311.135px 230.692px;" id="elpfk8b11kmun" class="animable"></path><path d="M164.35,205.42a299.63,299.63,0,0,1,30.27,0c-10.08.5-20.19.5-30.27,0Z" style="fill: rgb(219, 219, 219); transform-origin: 179.485px 205.416px;" id="elnma6qnyugrb" class="animable"></path><path d="M164.35,202a201.17,201.17,0,0,1,24.92,0,203.13,203.13,0,0,1-24.92,0Z" style="fill: rgb(219, 219, 219); transform-origin: 176.81px 201.998px;" id="el84fzb1zxppn" class="animable"></path><path d="M164.35,208.8a118.91,118.91,0,0,1,19.06,0,116.63,116.63,0,0,1-19.06,0Z" style="fill: rgb(219, 219, 219); transform-origin: 173.88px 208.804px;" id="elfz5q435mch" class="animable"></path></g><g id="freepik--light-bulb--inject-90" class="animable animator-active" style="transform-origin: 394.095px 145.617px;"><path d="M409.17,93.32a26.24,26.24,0,0,1,3.21-9.82,26.12,26.12,0,0,1-3.21,9.82Z" style="fill: rgb(38, 50, 56); transform-origin: 410.775px 88.41px;" id="el58mner6aajt" class="animable"></path><path d="M384.72,91.79a26.07,26.07,0,0,1-2.13-10.11,26.25,26.25,0,0,1,2.13,10.11Z" style="fill: rgb(38, 50, 56); transform-origin: 383.655px 86.735px;" id="elh5cf852pkt9" class="animable"></path><path d="M362.78,102.69a26,26,0,0,1-6.9-7.69,26.29,26.29,0,0,1,6.9,7.69Z" style="fill: rgb(38, 50, 56); transform-origin: 359.33px 98.845px;" id="eldws4usfxugj" class="animable"></path><path d="M349.23,123.11a26.08,26.08,0,0,1-9.82-3.22,26.26,26.26,0,0,1,9.82,3.22Z" style="fill: rgb(38, 50, 56); transform-origin: 344.32px 121.5px;" id="elw2sf6rf1fds" class="animable"></path><path d="M347.7,147.56a26.4,26.4,0,0,1-10.11,2.13,25.89,25.89,0,0,1,10.11-2.13Z" style="fill: rgb(38, 50, 56); transform-origin: 342.645px 148.625px;" id="elkmp8fy0nsl" class="animable"></path><path d="M425.41,173.67a26.16,26.16,0,0,1,6.9,7.69,26,26,0,0,1-6.9-7.69Z" style="fill: rgb(38, 50, 56); transform-origin: 428.86px 177.515px;" id="eljmx7xd4pmhf" class="animable"></path><path d="M439,153.26a26.24,26.24,0,0,1,9.82,3.21,26.06,26.06,0,0,1-9.82-3.21Z" style="fill: rgb(38, 50, 56); transform-origin: 443.91px 154.865px;" id="ellnp50cecj8" class="animable"></path><path d="M440.48,128.81a26.12,26.12,0,0,1,10.12-2.13,26.3,26.3,0,0,1-10.12,2.13Z" style="fill: rgb(38, 50, 56); transform-origin: 445.54px 127.745px;" id="eli9v4j5n3m0d" class="animable"></path><path d="M429.58,106.87a25.94,25.94,0,0,1,7.7-6.9,26.2,26.2,0,0,1-7.7,6.9Z" style="fill: rgb(38, 50, 56); transform-origin: 433.43px 103.42px;" id="elu2yl5lk3tnm" class="animable"></path><g id="elsas4pd06j2n"><g style="opacity: 0.5; transform-origin: 394.189px 142.863px;" class="animable"><path d="M431.24,153.64c-10.07,22.91-32.17,23.19-32.17,23.19-2.69,3.08-7.73,11.53-7.73,11.53l-26.21-9.1s1.29-9.77,1.09-13.85c0,0-17.16-13.92-10.85-38.14,4.38-16.82,24.45-37,51.89-27.44l.29.1C435,109.48,438.23,137.73,431.24,153.64Z" style="fill: rgb(255, 193, 0); transform-origin: 394.189px 142.863px;" id="elbk9bx3qwhhi" class="animable"></path></g></g><g id="elxbcof5du58"><g style="opacity: 0.7; transform-origin: 394.087px 144.572px;" class="animable"><path d="M428,152.64c-9.21,21-29.42,21.2-29.42,21.2-2.46,2.82-8.32,14.13-8.32,14.13l-24-8.32s2.42-12.52,2.24-16.25c0,0-15.69-12.74-9.92-34.88,4-15.39,22.36-33.82,47.46-25.1l.26.09C431.39,112.24,434.36,138.08,428,152.64Z" style="fill: rgb(255, 193, 0); transform-origin: 394.087px 144.572px;" id="elrddb8nc1ej" class="animable"></path></g></g><g id="elcnz1eefxpvu"><rect x="352.2" y="160.36" width="44.43" height="3" style="fill: rgb(255, 255, 255); transform-origin: 374.415px 161.86px; transform: rotate(-81.41deg);" class="animable"></rect></g><g id="elwh8elm5dmli"><rect x="372.64" y="167.46" width="44.43" height="3" style="fill: rgb(255, 255, 255); transform-origin: 394.855px 168.96px; transform: rotate(-60.28deg);" class="animable"></rect></g><path d="M388.44,158.88a4.24,4.24,0,0,1-1.45-.24c-2.44-.84-3.79-3.73-4.35-6.95a3.35,3.35,0,0,1-2.59.36c-4-1.39-2.76-10.06-2.7-10.43l1,.15c-.33,2.28-.63,8.4,2.05,9.33a2.65,2.65,0,0,0,2.11-.47,19.35,19.35,0,0,1,.62-7.95c.81-2.34,2.17-3.37,3.74-2.82a2.61,2.61,0,0,1,1.81,2.07c.49,2.57-1.87,6.46-4.35,8.6a8.8,8.8,0,0,1-.73.58c.48,3.13,1.71,5.89,3.73,6.59,1.83.63,4.08-.51,6.09-2.38a8.1,8.1,0,0,1-.44-1.51c-.65-3.39.48-7.7,2.46-9.42a2.69,2.69,0,0,1,2.71-.62c1.5.52,1.85,2.28,1,4.82a20.49,20.49,0,0,1-4.49,7,3.81,3.81,0,0,0,2.1,1.82c2.29.79,6.29-4.08,7.64-6l.82.57c-.54.78-5.38,7.6-8.79,6.41a4.75,4.75,0,0,1-2.5-2.06A8.6,8.6,0,0,1,388.44,158.88Zm8.85-14.25a1.85,1.85,0,0,0-1.21.52c-1.72,1.48-2.71,5.45-2.13,8.48a7.27,7.27,0,0,0,.23.92,18.76,18.76,0,0,0,4-6.29c.32-.92.92-3.1-.35-3.54A1.52,1.52,0,0,0,397.29,144.63Zm-11.23-3.91c-1,0-1.63,1.2-2,2.28a17.45,17.45,0,0,0-.63,7l.23-.19c2.22-1.93,4.43-5.55,4-7.66a1.64,1.64,0,0,0-1.16-1.32A1.54,1.54,0,0,0,386.06,140.72Z" style="fill: rgb(255, 255, 255); transform-origin: 391.171px 149.298px;" id="el6hpl4wowc46" class="animable"></path><g id="eldycimoqqk46"><rect x="357.71" y="183.31" width="34.75" height="19.12" style="fill: rgb(69, 90, 100); transform-origin: 375.085px 192.87px; transform: rotate(19.17deg);" class="animable"></rect></g><path d="M384.64,206.32c-3.12,2.75-7.89,4.52-14.95,2.07s-9.69-6.8-10.44-10.89Z" style="fill: rgb(69, 90, 100); transform-origin: 371.945px 203.527px;" id="el4bdmzj60xp9" class="animable"></path><path d="M384.64,206.32a13,13,0,0,1-3.1,2l-22-9.58c-.12-.43-.22-.85-.3-1.27Z" style="fill: rgb(55, 71, 79); transform-origin: 371.94px 202.895px;" id="el0uwrofvoaola" class="animable"></path><polygon points="394.4 193.32 358.54 184.46 359.09 182.89 394.94 191.75 394.4 193.32" style="fill: rgb(55, 71, 79); transform-origin: 376.74px 188.105px;" id="elafupnqzgs9k" class="animable"></polygon><polygon points="392.74 198.09 356.88 189.23 357.43 187.66 393.29 196.52 392.74 198.09" style="fill: rgb(55, 71, 79); transform-origin: 375.085px 192.875px;" id="el8x3bu8pb88k" class="animable"></polygon><polygon points="391.08 202.86 355.22 194 355.77 192.42 391.63 201.29 391.08 202.86" style="fill: rgb(55, 71, 79); transform-origin: 373.425px 197.64px;" id="el4unmroiitgd" class="animable"></polygon><g id="elxjcqevw0tzm"><g style="opacity: 0.5; transform-origin: 396.042px 137.307px;" class="animable"><path d="M365.55,124.64c1.13.62,4.85-5,14-9.91,4.07-2.17,16.72-2.25,17.19-6.22s-10.89-3.66-18,.43C367.39,115.53,364.51,124.07,365.55,124.64Z" style="fill: rgb(255, 255, 255); transform-origin: 381.053px 115.192px;" id="el1bxs0z38r1w" class="animable"></path><path d="M424.31,146.52a1.82,1.82,0,0,0,1.2-3.44A1.82,1.82,0,0,0,424.31,146.52Z" style="fill: rgb(255, 255, 255); transform-origin: 424.91px 144.8px;" id="eld08wsp55za" class="animable"></path><path d="M404.49,168.62c.89,1.35,8.65-2,13.55-7.58,4.06-4.6,6.8-11.26,5.45-12.16S418,157,415,159.76C411.24,163.31,403.54,167.19,404.49,168.62Z" style="fill: rgb(255, 255, 255); transform-origin: 414.124px 158.868px;" id="elvkudhy7d2jq" class="animable"></path></g></g></g><g id="freepik--Plant--inject-90" class="animable" style="transform-origin: 406.23px 379.071px;"><path d="M410.37,377.61c7.07-14.55,19.46-22,33.41-17.89s16.12,23.59,5.7,28.5-20.83-9.44-26.34-12.38S410.37,377.61,410.37,377.61Z" style="fill: rgb(255, 193, 0); transform-origin: 433.188px 373.916px;" id="el6gp8nq93lf3" class="animable"></path><path d="M403.52,416.32c0-1.75.1-3.5.16-5.26.13-3.5.25-7,.38-10.5.23-6.4.92-12.69,3.58-18.59A28.8,28.8,0,0,1,418.86,369a23.81,23.81,0,0,1,5.9-2.54,13.74,13.74,0,0,1,6.89-3.78,27.87,27.87,0,0,1,9.81-.25c.12,0,.12.2,0,.18a23.68,23.68,0,0,0-9.29.67,19.31,19.31,0,0,0-3.74,1.45,18.37,18.37,0,0,0-2.16,1.37,19.92,19.92,0,0,1,8.52.09,19,19,0,0,1,3,1,8.78,8.78,0,0,1,2.33-.19,13.42,13.42,0,0,1,3,.43,22.88,22.88,0,0,1,5.74,2.5.09.09,0,0,1-.09.16,21.25,21.25,0,0,0-5.61-2.11,17.39,17.39,0,0,0-2.88-.42,14.23,14.23,0,0,0-1.6,0,18.47,18.47,0,0,1,9,9c.05.11-.11.2-.16.09a17,17,0,0,0-11.5-9.22c-.31-.08-.62-.12-.93-.18a13.78,13.78,0,0,1,.15,1.41c.09.71.21,1.41.35,2.11a36.63,36.63,0,0,0,1.14,4.26,32.84,32.84,0,0,0,1.69,4.13,19.7,19.7,0,0,0,2.36,4c.08.1-.08.22-.15.11-.84-1.32-1.81-2.53-2.58-3.89a29.32,29.32,0,0,1-1.89-4.06,27.44,27.44,0,0,1-1.24-4.36c-.16-.78-.28-1.57-.37-2.37a5.79,5.79,0,0,1-.09-1.44,19.15,19.15,0,0,0-5-.1c.62,3.47,1.29,7.08,3.23,10.1.07.1-.1.19-.16.09a42.07,42.07,0,0,1-2.4-5,19.06,19.06,0,0,1-1.19-5.17,23.19,23.19,0,0,0-8.2,2.75,27,27,0,0,0-10.9,11.94,44.88,44.88,0,0,0-4.05,17.1c-.46,7.43-.56,14.91-1.3,22.33,0,.48-.82.64-.91.1A25.88,25.88,0,0,1,403.52,416.32Z" style="fill: rgb(38, 50, 56); transform-origin: 426.168px 391.87px;" id="el3tve3k1f1zj" class="animable"></path><path d="M419.87,367.87a8.17,8.17,0,0,1,1.61-1.49,21.76,21.76,0,0,1,1.8-1.36,13.42,13.42,0,0,1,4-1.87c.11,0,.16.16,0,.18a10.76,10.76,0,0,0-4,1.95q-.89.66-1.71,1.38A9.62,9.62,0,0,1,420,368C419.93,368.1,419.8,368,419.87,367.87Z" style="fill: rgb(38, 50, 56); transform-origin: 423.616px 365.595px;" id="eladsup1dsr34" class="animable"></path><path d="M442.45,373.14a42,42,0,0,1,3.25,4.29,25.58,25.58,0,0,1,2.41,4.79s-.06.08-.08,0a57.55,57.55,0,0,0-5.71-9C442.25,373.18,442.38,373.05,442.45,373.14Z" style="fill: rgb(38, 50, 56); transform-origin: 445.205px 377.682px;" id="el0zdf65s6m8ak" class="animable"></path><path d="M427.23,371.7a10.52,10.52,0,0,0,.8,2.63,16.41,16.41,0,0,0,1.35,2.33.05.05,0,0,1-.08.06,9.48,9.48,0,0,1-2.25-5C427,371.63,427.21,371.58,427.23,371.7Z" style="fill: rgb(38, 50, 56); transform-origin: 428.216px 374.184px;" id="ellqx46l9k1c" class="animable"></path><path d="M404.5,378s-10-12.59-29.35-8.13c-18.38,4.25-26.87,37.95-8.29,42s15.3-27.15,22.06-32.45C393.89,375.48,401,376.31,404.5,378Z" style="fill: rgb(255, 193, 0); transform-origin: 380.477px 390.573px;" id="eloflss79e6w" class="animable"></path><path d="M360.21,388.24a36.91,36.91,0,0,1,4-3.05,17,17,0,0,1,4.24-2.12,26.38,26.38,0,0,1,2.52-3.25,25.07,25.07,0,0,1,5.85-4.65l-.58,0c-1,0-2.05,0-3.07,0a17.37,17.37,0,0,0-6,1.49.09.09,0,0,1-.08-.17,27.1,27.1,0,0,1,6-1.79,16.07,16.07,0,0,1,3-.26c.54,0,1.09,0,1.63.09l.31,0a25.3,25.3,0,0,1,5.57-2.05c-.18-.05-.36-.11-.54-.15a25.07,25.07,0,0,0-2.86-.47,22.44,22.44,0,0,0-5.79.09c-.12,0-.15-.17,0-.18a35.63,35.63,0,0,1,5.84-.24,24.43,24.43,0,0,1,4.87.63,25.76,25.76,0,0,1,3.53-.4c6.74-.29,14.09,2.23,18.24,7.77s5,12.95,5.7,19.64a149.25,149.25,0,0,1,.74,28.11c-.05.56-.82.46-.84-.07-.25-8-.53-15.9-1.29-23.82-.36-3.66-.75-7.34-1.36-11a32.33,32.33,0,0,0-2.66-9,16.57,16.57,0,0,0-6.53-7,22,22,0,0,0-9.24-2.84,24.84,24.84,0,0,0-8.68.81,5.76,5.76,0,0,1,.05,1.71,9.41,9.41,0,0,1-.43,2.11,10.73,10.73,0,0,1-.8,1.88c-.36.66-.81,1.26-1.21,1.89-.06.1-.23,0-.15-.1a8.88,8.88,0,0,0,1.5-3.82,16.28,16.28,0,0,0,.23-2c0-.5,0-1,0-1.49a25.56,25.56,0,0,0-8.44,4.45c-.47.38-.92.78-1.37,1.19a9.39,9.39,0,0,1,1.64,2,20.47,20.47,0,0,1,1.72,3.06,25.75,25.75,0,0,1,1.79,6.73.09.09,0,1,1-.18,0,19.38,19.38,0,0,0-2.2-6.37,25.32,25.32,0,0,0-1.71-2.83c-.33-.47-.67-.93-1-1.37-.19-.24-.4-.49-.58-.75a26.84,26.84,0,0,0-5.48,7.73h0a13,13,0,0,1,2.27,3.26,29.57,29.57,0,0,1,1.81,3.87,65.4,65.4,0,0,1,2.31,7.89c0,.11-.16.15-.18,0a33.13,33.13,0,0,0-2.75-7.77c-.57-1.21-1.18-2.4-1.83-3.58a33.22,33.22,0,0,1-1.81-3.38,24.7,24.7,0,0,0-2.21,9,.09.09,0,0,1-.18,0A31.15,31.15,0,0,1,367.86,384c-1.18.51-2.37,1-3.51,1.61a19.78,19.78,0,0,0-4,2.82C360.24,388.46,360.12,388.32,360.21,388.24Z" style="fill: rgb(38, 50, 56); transform-origin: 386.927px 399.578px;" id="elip164q542em" class="animable"></path><path d="M374.39,389c.58,1.9,1.31,3.76,1.84,5.69a21.87,21.87,0,0,1,.85,5.68,0,0,0,0,1-.09,0A55.8,55.8,0,0,0,374.22,389,.09.09,0,1,1,374.39,389Z" style="fill: rgb(38, 50, 56); transform-origin: 375.648px 394.625px;" id="elx6araj7akse" class="animable"></path><path d="M362.14,384.22a10.5,10.5,0,0,1,2.56-1.83,18.38,18.38,0,0,1,3-1.05c.11,0,.15.16,0,.18a11.83,11.83,0,0,0-2.85,1.18,20.79,20.79,0,0,0-2.63,1.61C362.16,384.36,362.09,384.27,362.14,384.22Z" style="fill: rgb(38, 50, 56); transform-origin: 364.961px 382.832px;" id="el89ozexlsi5d" class="animable"></path><path d="M395,361.15s-1.85-22.63-18.67-30c-14-6.12-22.08,9.66-12.15,19.32C372.19,358.32,385.07,354.8,395,361.15Z" style="fill: rgb(255, 193, 0); transform-origin: 377.388px 345.464px;" id="ellz756ebjbn" class="animable"></path><path d="M367.27,335.57a73,73,0,0,1,7.48,3.54,56.28,56.28,0,0,1,5.81,3.86c-.28-.57-.53-1.17-.81-1.73-.44-.88-.91-1.73-1.43-2.56a24,24,0,0,0-3.7-4.69c-.09-.08.05-.21.13-.13a37.38,37.38,0,0,1,3.9,4.54,27.32,27.32,0,0,1,1.6,2.56,10.42,10.42,0,0,1,1.13,2.61l.19.13a55.77,55.77,0,0,1,8,7.86c-.05-.22-.09-.44-.15-.64-.32-1.11-.66-2.2-1-3.29a28.43,28.43,0,0,0-3-6.6c-.07-.1.1-.19.16-.09a52.87,52.87,0,0,1,3.52,6.44,23.15,23.15,0,0,1,1.16,3.34,14.21,14.21,0,0,1,.55,2.27c.73.93,1.45,1.87,2.13,2.83,7.22,10.28,10.85,22.71,11.72,35.15a106.33,106.33,0,0,1,.18,11.15,69.74,69.74,0,0,1-1,11.18c-.05.24-.41.17-.41-.06.09-3.27.42-6.53.49-9.8a97.62,97.62,0,0,0-.32-9.82,91.42,91.42,0,0,0-3.67-19.25,69.14,69.14,0,0,0-8.55-18.1c-.71-.14-1.41-.33-2.11-.51s-1.68-.43-2.51-.66a25.09,25.09,0,0,1-4.69-1.72c-.11-.06,0-.22.1-.16a15,15,0,0,0,4.75,1.64c1.32.26,2.68.43,4,.74a63.22,63.22,0,0,0-3.91-5.14,29.1,29.1,0,0,1-9.57-.72,37.9,37.9,0,0,1-4.89-1.52c-1.69-.65-3.28-1.49-5-2.18-.12-.05,0-.24.08-.17a28.25,28.25,0,0,0,9.7,3.18,60,60,0,0,0,9.07.75c-1.19-1.37-2.43-2.71-3.74-4-4.42-4.21-9.67-8.08-15.49-10.09C367.1,335.71,367.16,335.53,367.27,335.57Z" style="fill: rgb(38, 50, 56); transform-origin: 386.025px 373.642px;" id="el14uefu5323b" class="animable"></path><path d="M381,335.64a24.82,24.82,0,0,1,2.07,3,16.22,16.22,0,0,1,1.48,3.51s-.05.06-.07,0c-.56-1.11-1-2.26-1.6-3.36a16.32,16.32,0,0,0-2-3.06C380.75,335.68,380.88,335.55,381,335.64Z" style="fill: rgb(38, 50, 56); transform-origin: 382.688px 338.893px;" id="elhahlw9ui44e" class="animable"></path><path d="M365.32,343.17a17.27,17.27,0,0,0,3.44,1.44,31,31,0,0,0,3.52.94c.05,0,0,.11,0,.1a16.77,16.77,0,0,1-3.64-.79,30.45,30.45,0,0,1-3.4-1.53C365.11,343.28,365.21,343.11,365.32,343.17Z" style="fill: rgb(38, 50, 56); transform-origin: 368.74px 344.404px;" id="elgd1zue917d8" class="animable"></path><path d="M408.06,357.07c.1,1,2.54-8.21,16.76-16.37,12.92-7.41,28.33-26.68,15.67-38.86C430.27,292,403.34,313.44,408.06,357.07Z" style="fill: rgb(255, 193, 0); transform-origin: 426.36px 328.313px;" id="el54py8trpa8b" class="animable"></path><path d="M398.27,409.77a253.35,253.35,0,0,1,2.25-28.6,129.18,129.18,0,0,1,6-25.59c1.06-3,2.27-5.93,3.58-8.83a20,20,0,0,1,.06-3.38c.07-1.45.2-2.9.33-4.34s.28-2.89.45-4.33.48-2.87.54-4.31a.09.09,0,1,1,.18,0,31.77,31.77,0,0,0-.51,4.58c-.11,1.39-.19,2.79-.23,4.18s0,2.8,0,4.2c0,.51,0,1,.05,1.58,1.34-2.82,2.77-5.6,4.32-8.31-1-5.9.29-12.06,1.49-17.83,0-.11.2-.06.18.06A50,50,0,0,0,416,328c-.05,2.42.06,4.85.07,7.27.34-.58.68-1.16,1-1.74,1.85-3,3.82-6,5.91-8.82a13.45,13.45,0,0,1,.14-4.2,32.87,32.87,0,0,1,1-4.6q.68-2.25,1.57-4.44c.62-1.49,1.44-2.91,2-4.41.05-.12.24,0,.17.08a21.52,21.52,0,0,0-1.78,4.46A39.9,39.9,0,0,0,425,316c-.3,1.5-.55,3-.76,4.51-.14,1-.23,2-.4,3a110,110,0,0,1,10-11.59c.08-.08.2.05.12.14a130.76,130.76,0,0,0-14.45,19.67c-.16.26-.31.52-.46.79.78-.49,1.68-.88,2.42-1.29l4.14-2.28,4-2.2c.69-.39,1.37-.78,2.07-1.14a16.14,16.14,0,0,0,2.41-1.34c.11-.08.23.08.11.15-1.37.75-2.58,1.87-3.9,2.71s-2.68,1.67-4.06,2.44c-2.53,1.41-5.27,2.42-7.76,3.88q-2.6,4.53-4.79,9.28,2.28-1.46,4.62-2.76c1-.57,2-1.13,3-1.66a14.89,14.89,0,0,0,2.87-1.73.09.09,0,0,1,.13.13,26.88,26.88,0,0,1-5.47,3.8c-1.82,1.07-3.67,2.1-5.57,3q-2.28,5-4.12,10.18c-6,16.95-8.18,34.94-9.23,52.81-.31,5.32-.48,10.65-.54,16s.21,10.65.2,16c0,.16-.26.19-.28,0-.64-4.72-.75-9.53-1-14.29S398.16,414.61,398.27,409.77Z" style="fill: rgb(38, 50, 56); transform-origin: 416.199px 372.82px;" id="elicqndy1aqsb" class="animable"></path><path d="M424.1,333a67.57,67.57,0,0,0,7.56-3.91,79.06,79.06,0,0,0,7.18-4.56s.08,0,0,.07a59.88,59.88,0,0,1-6.89,4.82,68.08,68.08,0,0,1-7.8,3.74C424.08,333.25,424,333.08,424.1,333Z" style="fill: rgb(38, 50, 56); transform-origin: 431.464px 328.858px;" id="el4eozpnvrib7" class="animable"></path><path d="M420,313.88c.21-.83.48-1.64.75-2.45a.07.07,0,0,1,0-.09c.18-.46.37-.91.55-1.37l.07-.16c0-.09.07-.18.11-.26s.05,0,0,0-.09.32-.14.47a2.5,2.5,0,0,1-.07.26,67.91,67.91,0,0,0-2.11,9.66.09.09,0,0,1-.17,0A33.62,33.62,0,0,1,420,313.88Z" style="fill: rgb(38, 50, 56); transform-origin: 420.252px 314.757px;" id="el829j0llg74j" class="animable"></path><polygon points="387.01 415.87 387.9 426.43 390.63 458.66 419.87 458.66 422.6 426.43 423.49 415.87 387.01 415.87" style="fill: rgb(55, 71, 79); transform-origin: 405.25px 437.265px;" id="elp47b7r6uxd" class="animable"></polygon><polygon points="387.01 415.87 387.9 426.43 422.81 423.9 423.49 415.87 387.01 415.87" style="fill: rgb(38, 50, 56); transform-origin: 405.25px 421.15px;" id="elu4d7q1r400s" class="animable"></polygon><g id="elrk7vvvljedb"><rect x="384.14" y="411.62" width="42.22" height="10.14" style="fill: rgb(55, 71, 79); transform-origin: 405.25px 416.69px; transform: rotate(180deg);" class="animable"></rect></g></g><g id="freepik--Character--inject-90" class="animable" style="transform-origin: 140.035px 269.378px;"><path d="M85.31,353.69l-25,31.85c-5.12,6.77-9.48,12.79-11.45,16.11,0,0,0,0,0,.06a5.91,5.91,0,0,0-1.08,2.46.22.22,0,0,0,0,.08c1,2.88,53.83,45.34,56.17,46.2s5-5.75,4.24-9-13.71-28.6-13.71-28.6L118,380Z" style="fill: rgb(235, 148, 129); transform-origin: 82.8882px 402.108px;" id="eluc4pcm1ddma" class="animable"></path><path d="M103.89,450.45c-2.34-.85-55.19-43.32-56.18-46.21,0,0,0,0,0-.07a5.77,5.77,0,0,1,1.08-2.46.06.06,0,0,1,0,0c2-3.33,6.33-9.35,11.45-16.11l3.14-4,34.12,26.93-3.11,4.33s13,25.3,13.71,28.6S106.24,451.32,103.89,450.45Z" style="fill: rgb(219, 219, 219); transform-origin: 77.9651px 416.064px;" id="elt9mb24o1qu" class="animable"></path><path d="M104.11,451.45c-2.41-.89-56.66-44.6-57.68-47.57-.39-1.13,5.54-10.15,13.73-18.8L95.1,413.3s12.61,25.48,13.38,28.87S106.52,452.34,104.11,451.45Z" style="fill: rgb(255, 193, 0); transform-origin: 77.5122px 418.305px;" id="el08e09mfijltw" class="animable"></path><g id="elb7imyfxtslj"><path d="M104.11,451.45c-2.41-.89-56.66-44.6-57.68-47.57-.39-1.13,5.54-10.15,13.73-18.8L95.1,413.3s12.61,25.48,13.38,28.87S106.52,452.34,104.11,451.45Z" style="opacity: 0.3; transform-origin: 77.5122px 418.305px;" class="animable"></path></g><path d="M105.08,448.65c-8.92-7.55-45.58-37.15-55-43.94-.08,0-.12,0,0,.06,8.68,7.67,45.58,37,54.9,44C105.16,449,105.27,448.81,105.08,448.65Z" style="fill: rgb(38, 50, 56); transform-origin: 77.5918px 426.793px;" id="elix0g7msspu8" class="animable"></path><path d="M106.56,437.4a9.39,9.39,0,0,0-7.23-2.16,9.07,9.07,0,0,0-5.94,3.22c0,.06,0,.14.11.09a10.83,10.83,0,0,1,13-1A.08.08,0,0,0,106.56,437.4Z" style="fill: rgb(38, 50, 56); transform-origin: 100px 436.867px;" id="el9m21cn7g6uv" class="animable"></path><path d="M97.22,416.51c-3.6-3-8.85-5.1-13.51-3.94-.18,0-.12.3,0,.33A64.26,64.26,0,0,1,96.92,417,.3.3,0,0,0,97.22,416.51Z" style="fill: rgb(38, 50, 56); transform-origin: 90.4463px 414.628px;" id="eleqqkxexcuo" class="animable"></path><path d="M99.15,419.87c-3.6-3-8.85-5.1-13.51-3.95-.18.05-.12.31,0,.34a64.15,64.15,0,0,1,13.18,4.11A.3.3,0,0,0,99.15,419.87Z" style="fill: rgb(38, 50, 56); transform-origin: 92.3986px 418.006px;" id="elf6rs2xkz8xs" class="animable"></path><path d="M101.08,423.23c-3.6-3-8.86-5.1-13.52-4-.18.05-.11.3,0,.34a64.74,64.74,0,0,1,13.18,4.1A.29.29,0,0,0,101.08,423.23Z" style="fill: rgb(38, 50, 56); transform-origin: 94.2922px 421.312px;" id="elauurkxq5dpp" class="animable"></path><path d="M103,426.59c-3.6-3-8.86-5.1-13.52-3.95-.18.05-.11.3,0,.33a65,65,0,0,1,13.18,4.11A.29.29,0,0,0,103,426.59Z" style="fill: rgb(38, 50, 56); transform-origin: 96.2489px 424.727px;" id="elksutypya8ys" class="animable"></path><path d="M65.43,379.05l33.75,28.09s58.37-70.39,60.35-80c2.26-10.89,8.52-96.21,8.38-100.46-.18-5.15-5.86-27.82-5.86-27.82h-40.5s-5.66,111.57-6.84,115C113.44,317.64,65.43,379.05,65.43,379.05Z" style="fill: rgb(55, 71, 79); transform-origin: 116.671px 303px;" id="elshgmrgmimbl" class="animable"></path><polygon points="61.05 384.64 66.6 375.43 101.69 406.19 94.79 412.25 61.05 384.64" style="fill: rgb(69, 90, 100); transform-origin: 81.37px 393.84px;" id="eltuqshsr3je" class="animable"></polygon><path d="M102.38,398.68c-5.23-5-25.59-21.21-28.12-22.54-.06,0-.14.07-.1.12,1.84,2.19,19.17,16.42,28.08,22.59C102.34,398.92,102.46,398.76,102.38,398.68Z" style="fill: rgb(38, 50, 56); transform-origin: 88.2777px 387.504px;" id="elauw51lvps6" class="animable"></path><path d="M164.06,215.67a12.69,12.69,0,0,0-1.65-.39,10.87,10.87,0,0,1-1.71-.65,12.94,12.94,0,0,1-3.12-2.21,11.8,11.8,0,0,1-2.4-3.86c-.35-.81-2-5.16-2-5.19s-.17,0-.15.07c.11.6,1.25,4.35,1.58,5.29a12.35,12.35,0,0,0,2.51,4.48,10,10,0,0,0,3.45,2.33,7.53,7.53,0,0,0,1.86.49,2.94,2.94,0,0,0,1.69-.09C164.19,215.89,164.13,215.7,164.06,215.67Z" style="fill: rgb(38, 50, 56); transform-origin: 158.59px 209.736px;" id="el3j3l32oxbbz" class="animable"></path><path d="M128.23,200.87l-.85,22.41-1,22.4-2.15,44.79c-.41,7.47-.81,14.93-1.28,22.4,0,.92-.13,1.87-.22,2.84a1.17,1.17,0,0,1-.09.42,2.41,2.41,0,0,1-.18.36c-.12.22-.25.42-.37.63-.26.4-.53.78-.8,1.17-1.09,1.54-2.21,3-3.34,4.52-2.27,3-4.59,5.91-6.92,8.83q-7,8.78-14.08,17.46L78.4,373l18.23-24.16q7-8.79,13.87-17.62,3.44-4.43,6.82-8.89c1.12-1.49,2.24-3,3.31-4.5l.77-1.15c.22-.39.54-.77.52-1.1.08-.9.15-1.81.2-2.75.44-7.46.81-14.92,1.18-22.39l2.37-44.78,1.23-22.39Z" style="fill: rgb(38, 50, 56); transform-origin: 103.315px 286.935px;" id="eli6za63t7h1l" class="animable"></path><path d="M160.34,321.23c-.29,2.74-.56,4.79-.8,5.94-1.12,5.38-18.66,27.86-33.82,46.54L115.31,308.3c1.86-23.21,6.24-109.41,6.24-109.41h20.18Z" style="fill: rgb(38, 50, 56); transform-origin: 137.825px 286.3px;" id="el9znkw4opk2p" class="animable"></path><path d="M134.44,398.33s7.84,39.73,7.84,39.76c1.8,8.28,3.52,15.52,4.76,19.18a.07.07,0,0,0,0,.06,5.83,5.83,0,0,0,1.16,2.42l.06.05c2.83,1.13,69.48-11.28,71.66-12.49s-1.11-7.52-4.08-9.11S185.23,430,185.23,430l-9.52-39.26Z" style="fill: rgb(235, 148, 129); transform-origin: 177.533px 425.306px;" id="el8qovdwz6z5k" class="animable"></path><path d="M219.94,447.31c-2.17,1.21-68.83,13.62-71.66,12.48,0,0,0,0-.06,0a5.83,5.83,0,0,1-1.16-2.42.07.07,0,0,1,0-.06c-1.25-3.66-3-10.89-4.76-19.18l-1-5L184,424.78l1.26,5.18s27.63,6.67,30.62,8.24S222.13,446.1,219.94,447.31Z" style="fill: rgb(219, 219, 219); transform-origin: 180.978px 442.322px;" id="elxnro6zqr449" class="animable"></path><path d="M221.06,447.85c-2.25,1.23-70.77,13.77-73.69,12.6-1.11-.44-4.07-10.82-5.27-22.68l44.19-8s27.54,7.11,30.6,8.74S223.31,446.61,221.06,447.85Z" style="fill: rgb(255, 193, 0); transform-origin: 181.947px 445.148px;" id="eld5cx8d5ws8g" class="animable"></path><g id="ellbf5sgctf8l"><path d="M221.06,447.85c-2.25,1.23-70.77,13.77-73.69,12.6-1.11-.44-4.07-10.82-5.27-22.68l44.19-8s27.54,7.11,30.6,8.74S223.31,446.61,221.06,447.85Z" style="opacity: 0.3; transform-origin: 181.947px 445.148px;" class="animable"></path></g><path d="M219.58,445.28c-11.54,1.82-57.91,10.25-69.18,12.93-.09,0-.08.08,0,.07,11.48-1.56,57.78-10.36,69.2-12.81C219.85,445.42,219.82,445.25,219.58,445.28Z" style="fill: rgb(38, 50, 56); transform-origin: 185.055px 451.779px;" id="eleckbet00mmg" class="animable"></path><path d="M212,436.82a9.36,9.36,0,0,0-6.36,4.06,9.12,9.12,0,0,0-1.45,6.6c0,.07.14,0,.14,0a10.85,10.85,0,0,1,7.69-10.5C212.14,436.94,212.12,436.8,212,436.82Z" style="fill: rgb(38, 50, 56); transform-origin: 208.085px 442.165px;" id="elmth31diu7d" class="animable"></path><path d="M190.11,430.24c-4.61.77-9.65,3.37-11.82,7.66-.08.16.16.28.28.18a64.67,64.67,0,0,1,11.72-7.29A.29.29,0,0,0,190.11,430.24Z" style="fill: rgb(38, 50, 56); transform-origin: 184.373px 434.174px;" id="elsgjltev5cmo" class="animable"></path><path d="M193.91,431c-4.61.78-9.64,3.38-11.81,7.66-.09.17.15.28.27.19a64.51,64.51,0,0,1,11.72-7.3A.29.29,0,0,0,193.91,431Z" style="fill: rgb(38, 50, 56); transform-origin: 188.176px 434.937px;" id="el8gvjpmvcrhe" class="animable"></path><path d="M197.71,431.71c-4.61.77-9.64,3.37-11.81,7.65-.08.17.15.29.28.19a64.33,64.33,0,0,1,11.72-7.29A.29.29,0,0,0,197.71,431.71Z" style="fill: rgb(38, 50, 56); transform-origin: 191.989px 435.64px;" id="elf8uvsuvmzi9" class="animable"></path><path d="M201.52,432.44c-4.61.78-9.65,3.38-11.82,7.66-.08.16.16.28.28.19A63.83,63.83,0,0,1,201.7,433,.29.29,0,0,0,201.52,432.44Z" style="fill: rgb(38, 50, 56); transform-origin: 195.794px 436.374px;" id="elft8bopspbj" class="animable"></path><path d="M154,198.89s-1.06,17.32-5.84,29.65c0,0-6.9,4.3-7.62,5l44.63,192.63-45.27,8.29S123,337,121.55,330.86c-2.26-9.86-20.12-93.66-20.91-98.43-1.66-10,7.54-33.54,7.54-33.54Z" style="fill: rgb(55, 71, 79); transform-origin: 142.805px 316.675px;" id="elxnnl3mp10hr" class="animable"></path><path d="M178.65,416.78c-11.57,1.73-33.7,6.42-36.42,7.55-.06,0,0,.14,0,.14,2.94,0,29.9-5.39,36.43-7.48C178.8,417,178.76,416.76,178.65,416.78Z" style="fill: rgb(38, 50, 56); transform-origin: 160.477px 420.624px;" id="elc21o7sctouj" class="animable"></path><path d="M113.35,215.67c.84-.18,1.74-.13,2.6-.24a18.73,18.73,0,0,0,2.67-.5,19.21,19.21,0,0,0,4.79-2,10.24,10.24,0,0,0,3.47-3.69c.49-.79,2.73-5,2.75-5.08s.27,0,.25.08c-.13.6-1.59,4.3-2,5.22a10.08,10.08,0,0,1-3.59,4.32,15.75,15.75,0,0,1-5.31,2,16.85,16.85,0,0,1-2.92.33,7.78,7.78,0,0,1-2.72-.26C113.16,215.89,113.23,215.7,113.35,215.67Z" style="fill: rgb(38, 50, 56); transform-origin: 121.556px 210.131px;" id="elut3qoo3g0z" class="animable"></path><path d="M149.15,228.08a70.12,70.12,0,0,0-11.09,5,.13.13,0,0,0,.1.23c3.73-1.56,7.54-3.06,11.18-4.83A.24.24,0,0,0,149.15,228.08Z" style="fill: rgb(38, 50, 56); transform-origin: 143.706px 230.696px;" id="elrq67ikrwaoa" class="animable"></path><path d="M150.56,202.56c0-.13-.23-.16-.23,0a123.93,123.93,0,0,1-.74,12.42c-.19,1.92-1.83,12.5-5.14,11.69-.56-.13-.84-.68-.92-1.52a13.86,13.86,0,0,1,.47-3.24c.39-2.22.71-4.44.92-6.68a61,61,0,0,0,0-12.53.11.11,0,0,0-.22,0A113.66,113.66,0,0,1,143.51,220c-.44,2.75-1.86,6.89,1,7.34s4.89-6.48,5.26-8.37A63.39,63.39,0,0,0,150.56,202.56Z" style="fill: rgb(38, 50, 56); transform-origin: 146.77px 214.906px;" id="elia626obdy88" class="animable"></path><path d="M144.53,226.94a21,21,0,0,0-.77,2.19,5.1,5.1,0,0,0-.32,1.8c0,.12.16.13.23,0a6.61,6.61,0,0,0,.79-1.75c.25-.67.53-1.35.77-2A.37.37,0,0,0,144.53,226.94Z" style="fill: rgb(38, 50, 56); transform-origin: 144.345px 228.858px;" id="el93zn8lblvvj" class="animable"></path><path d="M111.62,198.89c-1.14,4.39-2.23,8.8-3.22,13.23s-1.92,8.87-2.47,13.36l-.16,1.68c0,.56,0,1.12,0,1.67l.5,3.33,1.26,6.69,2.71,13.33,11.12,53.3,11.14,53.31,6.9,34.29,5.45,26.68-5.91-26.58-7.17-34.24-11.34-53.26c-3.68-17.77-7.4-35.54-10.91-53.35L106.89,239l-1.2-6.7-.48-3.41a29.93,29.93,0,0,1,.25-3.43c.64-4.51,1.66-8.94,2.71-13.36S110.4,203.26,111.62,198.89Z" style="fill: rgb(38, 50, 56); transform-origin: 125.03px 309.325px;" id="elvj5wbtqurd" class="animable"></path><polygon points="140.48 438.12 136.31 428.88 185.33 419.89 185.88 429.05 140.48 438.12" style="fill: rgb(69, 90, 100); transform-origin: 161.095px 429.005px;" id="elh3h7ty4a87h" class="animable"></polygon><path d="M139.07,139.69C146.66,158,159.8,183,166.29,184.28c3.91.79,10.56,1.62,15.84-2.93,11.53-9.93,19.78-24.48,24.32-31.94,2.06-3.38-18.57-19.78-21.4-16.63-6.63,7.39-14.38,21.93-15.54,21.83-4.3-.36-10.21-11.11-20.2-21.29C137.28,121.06,135.82,131.86,139.07,139.69Z" style="fill: rgb(235, 148, 129); transform-origin: 172.084px 156.341px;" id="elgjgyeg7et7c" class="animable"></path><path d="M199.35,156.21c7.24-2.66,17.2-7,18.81-10.17,1.68-3.3,7.13-15.13,7.51-18.29s-1.33-12.66-3.24-14.76c-1.53-1.69-3.73.15-3.68,5.53.07,6-1.66,7.56-2.31,9.15s-6.74,7-9.25,6.49c-1.49-.32-4.2-1.71-3.63-4.39s2.28-4.51,3.44-9.11c.91-3.57-.77-6.93-2.16-6.92s-1.45,2.39-4.6,6.84c-2,2.77-3.5,4.7-9.3,7.29-5.07,2.26-7.94,7.48-7.94,7.48Z" style="fill: rgb(235, 148, 129); transform-origin: 204.362px 134.297px;" id="eltlhf0s760c" class="animable"></path><path d="M222.11,138.74c.78-1.88,4.79-6.75,5.57-9.35s2.41-12.83.09-14.9c-2.91-2.6-5.52,5.06-6.35,8.49s-5.59,8-5.59,8l3.64,4.31Z" style="fill: rgb(235, 148, 129); transform-origin: 222.399px 126.351px;" id="el2cp9ydbow3j" class="animable"></path><path d="M214.52,131.88c2.34-2.87,5.21-5.42,6.44-9,1.23-3,1.91-6.73,4.64-8.76A1.59,1.59,0,0,1,227,114c-1-.19-1.69.6-2.13,1.36-1.93,3.26-2.22,7.25-4.29,10.47a29.11,29.11,0,0,1-6.08,6Z" style="fill: rgb(38, 50, 56); transform-origin: 220.75px 122.886px;" id="elr5yhifhcrmg" class="animable"></path><path d="M221.16,140.24c1.27-1.58,6.42-5.09,7.89-7.37s5.87-11.6,4.26-14.25c-2-3.32-6.64,3.28-8.39,6.33s-7.52,6-7.52,6l2.24,5.16Z" style="fill: rgb(235, 148, 129); transform-origin: 225.53px 128.975px;" id="eldwg423tt6ip" class="animable"></path><path d="M215.91,131.5c3-2.08,6.45-3.72,8.61-6.78,2-2.47,3.67-5.88,6.83-7a1.54,1.54,0,0,1,1.38.31c-3-1.37-6.81,7.87-9.37,9.48a28.78,28.78,0,0,1-7.45,4Z" style="fill: rgb(38, 50, 56); transform-origin: 224.32px 124.59px;" id="elbb0d4mltbpf" class="animable"></path><path d="M214.39,136.07a12.66,12.66,0,0,1-7.11-.25c-2.25-.71-4.3-1.87-6.63-2.22a21.75,21.75,0,0,0-4.65-.25,13.64,13.64,0,0,1,9.41.71,21.86,21.86,0,0,0,9,2Z" style="fill: rgb(38, 50, 56); transform-origin: 205.205px 134.645px;" id="el0zwobulrb4dm" class="animable"></path><path d="M216.35,147.87c1.55-1.21,7.27-6.21,8.76-8.8s5.81-13.13,3.87-16c-2.42-3.63-7.13,3.88-8.88,7.34s-6.68,5.57-6.68,5.57l2.74,6.88Z" style="fill: rgb(235, 148, 129); transform-origin: 221.446px 134.986px;" id="elutrpowdkhbq" class="animable"></path><path d="M223.28,125.2c-.51,1.17-1.17,2.31-1.79,3.42a25.43,25.43,0,0,1-1.88,3.15,10.55,10.55,0,0,1-2.72,2.35c-.5.32-1,.61-1.54.89s-1.18.54-1.74.85c-.06,0-.12-.06-.06-.09a27.57,27.57,0,0,0,2.91-2,14.76,14.76,0,0,0,2.61-2.57c1.51-1.92,2.58-4.14,4.07-6.07C223.2,125,223.31,125.11,223.28,125.2Z" style="fill: rgb(38, 50, 56); transform-origin: 218.405px 130.465px;" id="el72zmwucj4zu" class="animable"></path><path d="M219.61,131.77c1.22-2.9,2.52-6.12,4.63-8.49,1.08-1.37,3.48-2.6,4.81-.83,1,1.5.73,3.4.47,5a26.45,26.45,0,0,1-2,6.12c.26-1,.52-2.07.72-3.11.39-2.37,1.24-5.24.05-7.44-1-1.13-2.41-.1-3.35.88-2.18,2.3-3.57,5.2-5.32,7.85Z" style="fill: rgb(38, 50, 56); transform-origin: 224.685px 127.571px;" id="elar3p61u6uzp" class="animable"></path><path d="M179.65,138.65l23.17,20.89s-13.67,19-22.59,24.09c-4.21,2.42-12.51,2.06-15.23.91-2.54-1.08-16.41-16.21-26.1-42.76-7.53-20.62,5.68-15,10.48-9.58,5.18,5.9,18.85,21.05,19.65,20.85S179.65,138.65,179.65,138.65Z" style="fill: rgb(255, 193, 0); transform-origin: 169.725px 156.299px;" id="elt3wdvs1we6r" class="animable"></path><path d="M176.21,145.69c3.49,3,6.9,6.08,10.28,9.19,1.66,1.53,8,7.84,9.85,9.62.07.07-.12.26-.2.19-1.81-1.53-8.55-7.73-10.18-9.29-3.33-3.16-6.63-6.34-9.84-9.62C176.06,145.72,176.15,145.64,176.21,145.69Z" style="fill: rgb(38, 50, 56); transform-origin: 186.228px 155.19px;" id="el37y172so4yb" class="animable"></path><g id="elelp5dmf4cul"><path d="M177.71,184.65c-4.41,1.26-10.47.84-12.71-.11-2.54-1.09-16.41-16.21-26.11-42.75-4.13-11.31-2-14.75,1.53-14.63C145.22,134.52,165.17,165.21,177.71,184.65Z" style="opacity: 0.1; transform-origin: 157.168px 156.296px;" class="animable"></path></g><path d="M101.8,210.48l64.36-2.92c.91-1.05-14.06-69.59-21.54-79.19-1.6-2.06-10.69-5.16-17.31,0C114.85,138.12,101.2,209.8,101.8,210.48Z" style="fill: rgb(235, 235, 235); transform-origin: 133.99px 168.014px;" id="elzbtg5rtubhp" class="animable"></path><path d="M129.26,126.2s4.81,24.09,5.9,32.41-.36,76-.36,76l-36.71,6.3s6.34-50.59,6.44-52.44c0,0,7-36.65,14.76-51.13C125,126.69,129.26,126.2,129.26,126.2Z" style="fill: rgb(255, 193, 0); transform-origin: 116.828px 183.555px;" id="el1oeft33u7h8" class="animable"></path><path d="M143.84,127.21s5.82,25.32,6.36,28,9.16,78.11,9.16,78.11l13.41,2.33-8.2-50.06S150.72,131.3,143.84,127.21Z" style="fill: rgb(255, 193, 0); transform-origin: 158.305px 181.43px;" id="eldot09fem97t" class="animable"></path><path d="M118.68,134.54c-11.56,13.62-25,35.18-27.14,44.44-1.51,6.48,8.21,35.59,11.83,42.9,1.57,3.16,26.15-6,25.45-9.7-.84-4.44-13-32-12.26-32.91s8.66-24.5,12-39.2C132.27,124,123.21,129.2,118.68,134.54Z" style="fill: rgb(235, 148, 129); transform-origin: 110.407px 175.904px;" id="elapeadiy6ylv" class="animable"></path><path d="M100.81,221l29.31-14.46s-12-23.5-12-25.37c0-3,8.15-26.74,11.21-37.68s.45-24.43-13.11-7.84-25.63,38.34-27,44.88C88.36,185.13,100.81,221,100.81,221Z" style="fill: rgb(255, 193, 0); transform-origin: 109.829px 174.439px;" id="elqxiywe89qio" class="animable"></path><path d="M99.62,212.7c1-.67,5.12-2.72,6.08-3.2,2.11-1.07,4.21-2.15,6.32-3.21s4.2-2.12,6.31-3.15,4.19-2.14,6.34-3a.08.08,0,0,1,.07.14c-1.94,1.32-16.44,8.88-18.58,9.86-1,.47-5.34,2.41-6.49,2.72A.06.06,0,0,1,99.62,212.7Z" style="fill: rgb(38, 50, 56); transform-origin: 112.166px 206.501px;" id="elm707m66akaj" class="animable"></path><path d="M126.67,208.23l3.4-1.82-.06.17c-4.31-8.19-8.81-16.31-12.25-24.93a3.91,3.91,0,0,1,.18-2c2.55-9.53,5.72-18.85,9-28.14-2.61,9.77-5.86,19.43-8.25,29.23l0,.37a39.51,39.51,0,0,0,2.16,5.36c2.07,4.53,7.25,15.37,9.42,20l.06.12-.12,0-3.51,1.59Z" style="fill: rgb(38, 50, 56); transform-origin: 124.017px 179.87px;" id="eldoi3k2r9ktp" class="animable"></path><path d="M125.12,157.28c.91-1.39,1.58-2.76,2.42-4.2a5.71,5.71,0,0,1-2.42,4.2Z" style="fill: rgb(38, 50, 56); transform-origin: 126.33px 155.18px;" id="el7cmmkl8ozav" class="animable"></path><path d="M102.48,222.74c6.73.71,23-6.44,27.84-11.21a4.75,4.75,0,0,0,1.13-1.67,4.32,4.32,0,0,1-.92,1.84c-4.81,5.89-20.53,12.8-28,11Z" style="fill: rgb(38, 50, 56); transform-origin: 116.965px 216.425px;" id="elp3hw1q726tl" class="animable"></path><path d="M141.47,136.66c-3.45.39-9.95-4.41-11.76-9.5-.12-.34.91-3.64,2-7.7.64-2.47,1.29-5.24,1.7-7.8.08-.53,15.46,6.49,15.46,6.49a42,42,0,0,0-3.14,9.6,5.63,5.63,0,0,0-.05,1.07c0,.05,0,.11,0,.18C145.66,131.05,145.16,136.25,141.47,136.66Z" style="fill: rgb(235, 148, 129); transform-origin: 139.285px 124.157px;" id="elkpjq06rm8ro" class="animable"></path><path d="M145.66,128.82c0,.05,0,.12,0,.18a10.12,10.12,0,0,1-1.66-.18c-9.44-1.73-10-14-10-17.07,2.79.87,14.89,6.4,14.89,6.4a41.39,41.39,0,0,0-3.14,9.61A5.49,5.49,0,0,0,145.66,128.82Z" style="fill: rgb(38, 50, 56); transform-origin: 141.445px 120.375px;" id="eljxm63eidg" class="animable"></path><path d="M133.62,91.21c-2.49,5.5-1.59,22.45,2,26.66,5.22,6.11,14.83,7.86,20.28,1.35,5.3-6.32,3.73-28.38-.39-32.32C149.46,81.1,137.29,83.07,133.62,91.21Z" style="fill: rgb(235, 148, 129); transform-origin: 145.743px 103.456px;" id="elrlqiqsbmrsg" class="animable"></path><path d="M147.5,103.71s-.08.06-.08.1c.1,1.14,0,2.46-1,2.9,0,0,0,.07,0,.07C147.71,106.52,147.78,104.77,147.5,103.71Z" style="fill: rgb(38, 50, 56); transform-origin: 147.027px 105.245px;" id="elc34l263jhua" class="animable"></path><path d="M146.41,102.58c-1.84,0-1.76,3.66-.06,3.68S148,102.6,146.41,102.58Z" style="fill: rgb(38, 50, 56); transform-origin: 146.333px 104.42px;" id="eltbgz2b016f" class="animable"></path><path d="M154.17,103.71s.09.05.09.1c0,1.14.16,2.45,1.21,2.81,0,0,0,.07,0,.06C154.19,106.53,154,104.79,154.17,103.71Z" style="fill: rgb(38, 50, 56); transform-origin: 154.794px 105.195px;" id="elx0vrpkj4rq" class="animable"></path><path d="M155.16,102.49c1.84-.18,2.06,3.51.36,3.67S153.62,102.64,155.16,102.49Z" style="fill: rgb(38, 50, 56); transform-origin: 155.396px 104.324px;" id="elxfwjjrdh6yk" class="animable"></path><path d="M144.92,100.92c.5-.14.94-.35,1.42-.53a2.5,2.5,0,0,0,1.34-.82.79.79,0,0,0-.15-.94,1.92,1.92,0,0,0-1.95-.16A2.86,2.86,0,0,0,144,99.73.83.83,0,0,0,144.92,100.92Z" style="fill: rgb(38, 50, 56); transform-origin: 145.84px 99.6084px;" id="elr2kwq7zhgbk" class="animable"></path><path d="M156.55,100.6a14.46,14.46,0,0,1-1.48-.34,2.45,2.45,0,0,1-1.43-.65.78.78,0,0,1,0-1,1.91,1.91,0,0,1,1.92-.4,2.87,2.87,0,0,1,1.76,1A.83.83,0,0,1,156.55,100.6Z" style="fill: rgb(38, 50, 56); transform-origin: 155.507px 99.3616px;" id="elgzr6hik3rjr" class="animable"></path><path d="M146.3,114c.27.28.53.65.94.7a3,3,0,0,0,1.24-.25s.07,0,0,.06a1.53,1.53,0,0,1-1.46.58,1.21,1.21,0,0,1-.87-1C146.17,114,146.26,114,146.3,114Z" style="fill: rgb(38, 50, 56); transform-origin: 147.331px 114.555px;" id="el5t0bfe13euh" class="animable"></path><path d="M147.6,110.66a3.92,3.92,0,0,0,2.55,1.81,5,5,0,0,0,1.39.1,1.14,1.14,0,0,0,.27,0l.25,0a.29.29,0,0,0,.24-.25h0a.41.41,0,0,0,0-.11h0V112c0-.88,0-2.22,0-2.22.32.17,1.93,1,1.92.49a58.09,58.09,0,0,0-1.15-11.81.11.11,0,0,0-.21,0c0,3.67.57,7.32.59,11a6.5,6.5,0,0,0-1.82-.61c-.12,0,.14,2.58.08,3a.16.16,0,0,1,0,0,5.45,5.45,0,0,1-4-1.37C147.63,110.49,147.54,110.56,147.6,110.66Z" style="fill: rgb(38, 50, 56); transform-origin: 150.901px 105.482px;" id="elctsif7y5fwi" class="animable"></path><path d="M151,112.11a4.62,4.62,0,0,1-1.89,1.38,2.08,2.08,0,0,1-1.26,0c-.91-.27-.91-1.11-.72-1.82a5.49,5.49,0,0,1,.44-1.08A6,6,0,0,0,151,112.11Z" style="fill: rgb(38, 50, 56); transform-origin: 149.015px 112.089px;" id="eloxhqn5kqt5" class="animable"></path><path d="M149.15,113.49a2.08,2.08,0,0,1-1.26,0c-.91-.27-.91-1.11-.72-1.82A2.15,2.15,0,0,1,149.15,113.49Z" style="fill: rgb(255, 155, 188); transform-origin: 148.11px 112.629px;" id="elvmbq4q7x3o" class="animable"></path><path d="M134.93,104.54c2.54.25,3.45-5.53,3.45-5.53s6.18,2.32,7-6.17c0,0,7.24,3.09,12.06,1,4.12-1.8,6.78-8.33,4.21-12.55-1.45-2.37-5.84-4.81-13.25,1.23,0,0-8.39-6.88-12.61,3.58,0,0-4.65.18-5.58,4.61C128.76,97.68,132.73,104.33,134.93,104.54Z" style="fill: rgb(38, 50, 56); transform-origin: 146.281px 91.6416px;" id="elsajdy1yd31n" class="animable"></path><path d="M145.43,92.24a.07.07,0,0,0-.13,0c.22,2.11.44,4.39-1.34,5.93a5,5,0,0,1-6,.54c-.11-.07-.23.1-.12.17a5.43,5.43,0,0,0,6-.15C146,97.23,146.07,94.58,145.43,92.24Z" style="fill: rgb(38, 50, 56); transform-origin: 141.789px 95.9535px;" id="elhxaaasz440d" class="animable"></path><path d="M135.23,103.24c-3.35-2.09-5.77-5.28-5.72-9.4a7.92,7.92,0,0,1,1.88-5.4c1.24-1.32,3-1.7,4.52-2.44a0,0,0,0,0,0-.09c-9.48,1.58-8.62,14.19-.89,17.75A.24.24,0,0,0,135.23,103.24Z" style="fill: rgb(38, 50, 56); transform-origin: 132.461px 94.7889px;" id="el7msjnkvawwx" class="animable"></path><path d="M162.82,81.45c-3.42-5.83-11.4-2.76-14.72,1.45,0,0,0,0,0,0,3-3.12,8.79-5.94,12.67-3,4.68,3.61,1.89,12.4-3.89,12.79-.17,0-.16.31,0,.31C162.22,93.09,165.37,85.78,162.82,81.45Z" style="fill: rgb(38, 50, 56); transform-origin: 155.91px 85.6149px;" id="el04inl2vjqcum" class="animable"></path><path d="M137.56,104.26S134,98.72,131.5,100s0,9.18,2.86,10.36a2.92,2.92,0,0,0,4-1.42Z" style="fill: rgb(235, 148, 129); transform-origin: 134.417px 105.244px;" id="el34lqtlaq2is" class="animable"></path><path d="M132.28,102.22a0,0,0,0,0,0,.08c2,.9,3,2.8,3.64,4.77a1.61,1.61,0,0,0-2.4-.53c-.05,0,0,.11.05.11a1.79,1.79,0,0,1,1.95.7,8.38,8.38,0,0,1,.89,1.64c.09.18.41.1.35-.11v0C136.88,106.26,135,102.59,132.28,102.22Z" style="fill: rgb(38, 50, 56); transform-origin: 134.524px 105.655px;" id="elefp9r19eny" class="animable"></path><path d="M145.91,127.27l-4.47,9.15-10.85-12.77L127,127.23s10.08,19.77,10.21,18.92l4.48-7.84,5.19,6.06.57-14.22Z" style="fill: rgb(235, 235, 235); transform-origin: 137.225px 134.913px;" id="el6h4y99yc95" class="animable"></path><path d="M147.56,137.36c0-2.35.1-4.72,0-7.07,0-.08-.13-.13-.16,0-.63,2.22-.65,11.21-.81,13.36l0,0c-.22-.26-4.84-5.35-4.89-5.28-.94,1.23-4.22,6.94-4.45,7.46-1.6-3.14-7.75-14.58-9.68-17.58-.06-.08-.19,0-.15.07,1.37,3.3,9.49,18.69,9.63,18.66a91.91,91.91,0,0,0,4.69-8.29c.76,1.09,5.38,6.79,5.43,6.44A73.59,73.59,0,0,0,147.56,137.36Z" style="fill: rgb(38, 50, 56); transform-origin: 137.508px 137.598px;" id="ellr5qqawj08e" class="animable"></path></g><g id="freepik--speech-bubble--inject-90" class="animable" style="transform-origin: 193.68px 70.49px;"><polygon points="165.36 49.78 165.36 82.7 169.98 82.7 169.98 90.69 177.97 82.7 221.79 82.7 221.79 49.78 165.36 49.78" style="fill: rgb(255, 255, 255); transform-origin: 193.575px 70.235px;" id="el9qtnebmessa" class="animable"></polygon><path d="M165.36,49.78l.3,32.92-.3-.3,4.62,0h.33v.33l.05,8-.64-.27,7.95-8c.14-.16.1-.12.3-.13l43.82-.06-.49.49.07-32.92.42.43c-14.06-.06-42.36-.3-56.43-.43Zm0,0c14.29-.14,42.57-.37,56.86-.43v.43l.06,32.92v.49h-.49c.13-.17-44.94.2-43.52-.19l-8,8-.64.63v-.89l0-8L170,83l-4.62,0h-.3v-.3l.3-32.92Z" style="fill: rgb(38, 50, 56); transform-origin: 193.68px 70.49px;" id="el8gvptx9ux8u" class="animable"></path><path d="M204.25,66.24a2.67,2.67,0,1,0,2.67-2.67A2.66,2.66,0,0,0,204.25,66.24Z" style="fill: rgb(38, 50, 56); transform-origin: 206.92px 66.24px;" id="eldpygun015lt" class="animable"></path><path d="M190.9,66.24a2.68,2.68,0,1,0,2.68-2.67A2.67,2.67,0,0,0,190.9,66.24Z" style="fill: rgb(38, 50, 56); transform-origin: 193.58px 66.25px;" id="ella0uodk6i1h" class="animable"></path><path d="M177.56,66.24a2.68,2.68,0,1,0,2.67-2.67A2.67,2.67,0,0,0,177.56,66.24Z" style="fill: rgb(38, 50, 56); transform-origin: 180.24px 66.25px;" id="els40mqe6vwqp" class="animable"></path></g><defs>     <filter id="active" height="200%">         <feMorphology in="SourceAlpha" result="DILATED" operator="dilate" radius="2"></feMorphology>                <feFlood flood-color="#32DFEC" flood-opacity="1" result="PINK"></feFlood>        <feComposite in="PINK" in2="DILATED" operator="in" result="OUTLINE"></feComposite>        <feMerge>            <feMergeNode in="OUTLINE"></feMergeNode>            <feMergeNode in="SourceGraphic"></feMergeNode>        </feMerge>    </filter>    <filter id="hover" height="200%">        <feMorphology in="SourceAlpha" result="DILATED" operator="dilate" radius="2"></feMorphology>                <feFlood flood-color="#ff0000" flood-opacity="0.5" result="PINK"></feFlood>        <feComposite in="PINK" in2="DILATED" operator="in" result="OUTLINE"></feComposite>        <feMerge>            <feMergeNode in="OUTLINE"></feMergeNode>            <feMergeNode in="SourceGraphic"></feMergeNode>        </feMerge>            <feColorMatrix type="matrix" values="0   0   0   0   0                0   1   0   0   0                0   0   0   0   0                0   0   0   1   0 "></feColorMatrix>    </filter></defs></svg>